G75*
%MOIN*%
%OFA0B0*%
%FSLAX25Y25*%
%IPPOS*%
%LPD*%
%AMOC8*
5,1,8,0,0,1.08239X$1,22.5*
%
%ADD10C,0.13800*%
%ADD11C,0.03300*%
%ADD12R,0.04737X0.05131*%
%ADD13R,0.03300X0.05800*%
%ADD14R,0.08674X0.05524*%
%ADD15R,0.06115X0.03162*%
%ADD16C,0.08200*%
%ADD17R,0.05131X0.04737*%
%ADD18R,0.03556X0.02296*%
%ADD19R,0.05800X0.03300*%
D10*
X0178333Y0376400D03*
X0248333Y0376400D03*
D11*
X0259833Y0294900D03*
X0166333Y0388400D03*
D12*
X0193333Y0359746D03*
X0193333Y0353054D03*
X0193333Y0344746D03*
X0193333Y0338054D03*
X0233333Y0338054D03*
X0233333Y0344746D03*
X0240833Y0344746D03*
X0240833Y0338054D03*
X0248333Y0338054D03*
X0248333Y0344746D03*
X0233333Y0353054D03*
X0233333Y0359746D03*
D13*
X0216533Y0356400D03*
X0213333Y0356400D03*
X0210133Y0356400D03*
D14*
X0168865Y0327424D03*
X0168865Y0305376D03*
X0257802Y0305376D03*
X0257802Y0327424D03*
D15*
X0243333Y0322306D03*
X0243333Y0318369D03*
X0243333Y0314431D03*
X0243333Y0310494D03*
X0183333Y0310494D03*
X0183333Y0314431D03*
X0183333Y0318369D03*
X0183333Y0322306D03*
D16*
X0193333Y0306400D03*
X0203333Y0306400D03*
X0213333Y0306400D03*
X0223333Y0306400D03*
X0233333Y0306400D03*
D17*
X0223680Y0326400D03*
X0216987Y0326400D03*
X0209180Y0326400D03*
X0202487Y0326400D03*
D18*
X0204573Y0333282D03*
X0204573Y0335841D03*
X0204573Y0338400D03*
X0204573Y0340959D03*
X0204573Y0343518D03*
X0222093Y0343518D03*
X0222093Y0340959D03*
X0222093Y0338400D03*
X0222093Y0335841D03*
X0222093Y0333282D03*
D19*
X0243333Y0354800D03*
X0243333Y0358000D03*
X0253333Y0358000D03*
X0253333Y0354800D03*
M02*
