%
M48
M72
T01C0.0150
T02C0.0400
T03C0.1300
%
T01
X18333Y30140
X19833Y31740
X20583Y32140
X21833Y31890
X22708Y32140
X22688Y33040
X22864Y33659
X22658Y34140
X21833Y33590
X21333Y33490
X19833Y33640
X18833Y32640
X20333Y35140
X20058Y35465
X22333Y35140
X24083Y33340
X24333Y32640
X25063Y32640
X25083Y31640
X25583Y31640
X24833Y34940
T02
X23333Y30640
X22333Y30640
X21333Y30640
X20333Y30640
X19333Y30640
T03
X17833Y37640
X24833Y37640
M30
