G75*
%MOIN*%
%OFA0B0*%
%FSLAX25Y25*%
%IPPOS*%
%LPD*%
%AMOC8*
5,1,8,0,0,1.08239X$1,22.5*
%
%ADD10C,0.02500*%
%ADD11R,0.03937X0.04331*%
%ADD12R,0.02500X0.05000*%
%ADD13R,0.07874X0.04724*%
%ADD14R,0.05315X0.02362*%
%ADD15C,0.07400*%
%ADD16R,0.04331X0.03937*%
%ADD17R,0.02756X0.01496*%
%ADD18R,0.05000X0.02500*%
%ADD19C,0.02900*%
%ADD20C,0.00700*%
%ADD21C,0.01000*%
D10*
X0259833Y0294900D03*
X0166333Y0388400D03*
D11*
X0193333Y0359746D03*
X0193333Y0353054D03*
X0193333Y0344746D03*
X0193333Y0338054D03*
X0233333Y0338054D03*
X0233333Y0344746D03*
X0240833Y0344746D03*
X0240833Y0338054D03*
X0248333Y0338054D03*
X0248333Y0344746D03*
X0233333Y0353054D03*
X0233333Y0359746D03*
D12*
X0216533Y0356400D03*
X0213333Y0356400D03*
X0210133Y0356400D03*
D13*
X0168865Y0327424D03*
X0168865Y0305376D03*
X0257802Y0305376D03*
X0257802Y0327424D03*
D14*
X0243333Y0322306D03*
X0243333Y0318369D03*
X0243333Y0314431D03*
X0243333Y0310494D03*
X0183333Y0310494D03*
X0183333Y0314431D03*
X0183333Y0318369D03*
X0183333Y0322306D03*
D15*
X0193333Y0306400D03*
X0203333Y0306400D03*
X0213333Y0306400D03*
X0223333Y0306400D03*
X0233333Y0306400D03*
D16*
X0223680Y0326400D03*
X0216987Y0326400D03*
X0209180Y0326400D03*
X0202487Y0326400D03*
D17*
X0204573Y0333282D03*
X0204573Y0335841D03*
X0204573Y0338400D03*
X0204573Y0340959D03*
X0204573Y0343518D03*
X0222093Y0343518D03*
X0222093Y0340959D03*
X0222093Y0338400D03*
X0222093Y0335841D03*
X0222093Y0333282D03*
D18*
X0243333Y0354800D03*
X0243333Y0358000D03*
X0253333Y0358000D03*
X0253333Y0354800D03*
D19*
X0248333Y0349400D03*
X0240833Y0333400D03*
X0243333Y0326400D03*
X0250633Y0326400D03*
X0250833Y0316400D03*
X0255833Y0316400D03*
X0228642Y0336591D03*
X0226583Y0341400D03*
X0218333Y0335900D03*
X0213333Y0334900D03*
X0226883Y0330400D03*
X0227083Y0321400D03*
X0218333Y0318900D03*
X0205833Y0321400D03*
X0198333Y0317400D03*
X0188333Y0326400D03*
X0198333Y0336400D03*
X0203333Y0351400D03*
X0200583Y0354650D03*
X0223333Y0351400D03*
X0183333Y0301400D03*
D20*
X0183333Y0310494D01*
X0183333Y0314431D02*
X0193333Y0314431D01*
X0193333Y0330650D01*
X0190833Y0333150D01*
X0187583Y0333150D01*
X0184833Y0335900D01*
X0184833Y0348900D01*
X0188987Y0353054D01*
X0193333Y0353054D01*
X0198987Y0353054D01*
X0200583Y0354650D01*
X0198333Y0351400D02*
X0203333Y0351400D01*
X0213333Y0351400D01*
X0218333Y0351400D01*
X0223333Y0356400D01*
X0236833Y0356400D01*
X0238333Y0357900D01*
X0238333Y0359900D01*
X0239833Y0361400D01*
X0243333Y0361400D01*
X0243333Y0358000D01*
X0243333Y0354800D02*
X0239483Y0354800D01*
X0237583Y0352900D01*
X0237583Y0350650D01*
X0235583Y0348650D01*
X0233333Y0348650D01*
X0202333Y0348650D01*
X0199833Y0346150D01*
X0199833Y0340400D01*
X0201833Y0338400D01*
X0204573Y0338400D01*
X0204573Y0340959D02*
X0202274Y0340959D01*
X0201333Y0341900D01*
X0201333Y0345650D01*
X0202333Y0346650D01*
X0225083Y0346650D01*
X0230333Y0341400D01*
X0240083Y0341400D01*
X0240833Y0342150D01*
X0240833Y0344746D01*
X0240833Y0348900D01*
X0243333Y0351400D01*
X0245583Y0351400D01*
X0248833Y0354650D01*
X0253183Y0354650D01*
X0253333Y0354800D01*
X0253333Y0358000D02*
X0253333Y0360150D01*
X0252083Y0361400D01*
X0243333Y0361400D01*
X0233333Y0359746D02*
X0223680Y0359746D01*
X0220333Y0356400D01*
X0216533Y0356400D01*
X0213333Y0356400D02*
X0213333Y0351400D01*
X0210133Y0356400D02*
X0206333Y0356400D01*
X0202987Y0359746D01*
X0193333Y0359746D01*
X0198333Y0351400D02*
X0196333Y0349400D01*
X0189333Y0349400D01*
X0187333Y0347400D01*
X0187333Y0343400D01*
X0187302Y0343369D01*
X0187333Y0343400D02*
X0187333Y0338900D01*
X0188180Y0338054D01*
X0193333Y0338054D01*
X0193333Y0334650D01*
X0194701Y0333282D01*
X0201083Y0333282D01*
X0204573Y0333282D01*
X0204764Y0335650D02*
X0204573Y0335841D01*
X0204764Y0335650D02*
X0206583Y0335650D01*
X0207083Y0335150D01*
X0207083Y0331900D01*
X0205833Y0330650D01*
X0205833Y0321400D01*
X0227083Y0321400D01*
X0220833Y0318900D02*
X0233333Y0306400D01*
X0239802Y0314431D02*
X0238833Y0315400D01*
X0238833Y0326400D01*
X0243333Y0326400D01*
X0243333Y0322306D02*
X0249928Y0322306D01*
X0255833Y0316400D01*
X0250833Y0316400D02*
X0248865Y0318369D01*
X0243333Y0318369D01*
X0243333Y0314431D02*
X0239802Y0314431D01*
X0238833Y0326400D02*
X0238833Y0328900D01*
X0235333Y0332400D01*
X0228583Y0332400D01*
X0226083Y0334900D01*
X0226083Y0337150D01*
X0224833Y0338400D01*
X0222093Y0338400D01*
X0222093Y0335841D02*
X0218392Y0335841D01*
X0218333Y0335900D01*
X0220215Y0333282D02*
X0219333Y0332400D01*
X0215833Y0332400D01*
X0213333Y0334900D01*
X0209180Y0341554D02*
X0207333Y0343400D01*
X0204692Y0343400D01*
X0204573Y0343518D01*
X0209180Y0341554D02*
X0209180Y0326400D01*
X0216987Y0326400D01*
X0220215Y0333282D02*
X0222093Y0333282D01*
X0228642Y0335341D02*
X0228642Y0336591D01*
X0228642Y0335341D02*
X0229583Y0334400D01*
X0235833Y0334400D01*
X0239333Y0330900D01*
X0247333Y0330900D01*
X0248333Y0331900D01*
X0248333Y0338054D01*
X0248333Y0344746D02*
X0248333Y0349400D01*
X0233333Y0348650D02*
X0233333Y0344746D01*
X0233333Y0353054D02*
X0224987Y0353054D01*
X0223333Y0351400D01*
X0201083Y0333282D02*
X0201083Y0326400D01*
X0202487Y0326400D01*
X0201083Y0327804D01*
X0198333Y0317400D02*
X0207333Y0317400D01*
X0208833Y0318900D01*
X0218333Y0318900D01*
X0220833Y0318900D01*
X0215302Y0314431D02*
X0223333Y0306400D01*
X0215302Y0314431D02*
X0193333Y0314431D01*
X0188333Y0319400D02*
X0187302Y0318369D01*
X0183333Y0318369D01*
X0188333Y0319400D02*
X0188333Y0326400D01*
D21*
X0165433Y0301314D02*
X0165433Y0293500D01*
X0257220Y0293500D01*
X0256883Y0294313D01*
X0256883Y0295487D01*
X0257332Y0296571D01*
X0258162Y0297401D01*
X0259247Y0297850D01*
X0260420Y0297850D01*
X0261233Y0297513D01*
X0261233Y0301314D01*
X0253161Y0301314D01*
X0252165Y0302310D01*
X0252165Y0308443D01*
X0253161Y0309439D01*
X0261233Y0309439D01*
X0261233Y0323361D01*
X0253161Y0323361D01*
X0252165Y0324357D01*
X0252165Y0330490D01*
X0253161Y0331486D01*
X0261233Y0331486D01*
X0261233Y0389300D01*
X0169154Y0389300D01*
X0169283Y0388987D01*
X0169283Y0387813D01*
X0168834Y0386729D01*
X0168004Y0385899D01*
X0166920Y0385450D01*
X0165747Y0385450D01*
X0165433Y0385580D01*
X0165433Y0331486D01*
X0173506Y0331486D01*
X0174502Y0330490D01*
X0174502Y0324357D01*
X0173506Y0323361D01*
X0165433Y0323361D01*
X0165433Y0309439D01*
X0173506Y0309439D01*
X0174502Y0308443D01*
X0174502Y0302310D01*
X0173506Y0301314D01*
X0165433Y0301314D01*
X0165433Y0300387D02*
X0180344Y0300387D01*
X0180183Y0300773D02*
X0180663Y0299616D01*
X0181549Y0298730D01*
X0182707Y0298250D01*
X0183960Y0298250D01*
X0185118Y0298730D01*
X0186004Y0299616D01*
X0186483Y0300773D01*
X0186483Y0302027D01*
X0186004Y0303184D01*
X0185383Y0303805D01*
X0185383Y0307613D01*
X0186695Y0307613D01*
X0187691Y0308609D01*
X0187691Y0312380D01*
X0187689Y0312381D01*
X0214453Y0312381D01*
X0215477Y0311357D01*
X0214407Y0311800D01*
X0212259Y0311800D01*
X0210274Y0310978D01*
X0208755Y0309459D01*
X0208224Y0308176D01*
X0208152Y0308396D01*
X0207781Y0309125D01*
X0207300Y0309788D01*
X0206721Y0310366D01*
X0206059Y0310847D01*
X0205329Y0311219D01*
X0204551Y0311472D01*
X0203833Y0311586D01*
X0203833Y0306900D01*
X0202833Y0306900D01*
X0202833Y0311586D01*
X0202116Y0311472D01*
X0201337Y0311219D01*
X0200608Y0310847D01*
X0199946Y0310366D01*
X0199367Y0309788D01*
X0198886Y0309125D01*
X0198514Y0308396D01*
X0198443Y0308176D01*
X0197911Y0309459D01*
X0196392Y0310978D01*
X0194407Y0311800D01*
X0192259Y0311800D01*
X0190274Y0310978D01*
X0188755Y0309459D01*
X0187933Y0307474D01*
X0187933Y0305326D01*
X0188755Y0303341D01*
X0190274Y0301822D01*
X0192259Y0301000D01*
X0194407Y0301000D01*
X0196392Y0301822D01*
X0197911Y0303341D01*
X0198443Y0304624D01*
X0198514Y0304404D01*
X0198886Y0303675D01*
X0199367Y0303012D01*
X0199946Y0302434D01*
X0200608Y0301953D01*
X0201337Y0301581D01*
X0202116Y0301328D01*
X0202833Y0301214D01*
X0202833Y0305900D01*
X0203833Y0305900D01*
X0203833Y0301214D01*
X0204551Y0301328D01*
X0205329Y0301581D01*
X0206059Y0301953D01*
X0206721Y0302434D01*
X0207300Y0303012D01*
X0207781Y0303675D01*
X0208152Y0304404D01*
X0208224Y0304624D01*
X0208755Y0303341D01*
X0210274Y0301822D01*
X0212259Y0301000D01*
X0214407Y0301000D01*
X0216392Y0301822D01*
X0217911Y0303341D01*
X0218333Y0304360D01*
X0218755Y0303341D01*
X0220274Y0301822D01*
X0222259Y0301000D01*
X0224407Y0301000D01*
X0226392Y0301822D01*
X0227911Y0303341D01*
X0228333Y0304360D01*
X0228755Y0303341D01*
X0230274Y0301822D01*
X0232259Y0301000D01*
X0234407Y0301000D01*
X0236392Y0301822D01*
X0237911Y0303341D01*
X0238733Y0305326D01*
X0238733Y0307474D01*
X0237911Y0309459D01*
X0236392Y0310978D01*
X0234407Y0311800D01*
X0232259Y0311800D01*
X0231250Y0311382D01*
X0223282Y0319350D01*
X0224679Y0319350D01*
X0225299Y0318730D01*
X0226457Y0318250D01*
X0227710Y0318250D01*
X0228868Y0318730D01*
X0229754Y0319616D01*
X0230233Y0320773D01*
X0230233Y0322027D01*
X0229754Y0323184D01*
X0228868Y0324070D01*
X0227710Y0324550D01*
X0227345Y0324550D01*
X0227345Y0325916D01*
X0224164Y0325916D01*
X0224164Y0326884D01*
X0227345Y0326884D01*
X0227345Y0328566D01*
X0227243Y0328947D01*
X0227045Y0329290D01*
X0226766Y0329569D01*
X0226424Y0329766D01*
X0226043Y0329868D01*
X0224164Y0329868D01*
X0224164Y0326884D01*
X0223196Y0326884D01*
X0223196Y0329868D01*
X0221317Y0329868D01*
X0220935Y0329766D01*
X0220593Y0329569D01*
X0220475Y0329450D01*
X0219856Y0330068D01*
X0214117Y0330068D01*
X0213122Y0329073D01*
X0213122Y0328450D01*
X0213045Y0328450D01*
X0213045Y0329073D01*
X0212049Y0330068D01*
X0211230Y0330068D01*
X0211230Y0332549D01*
X0211549Y0332230D01*
X0212707Y0331750D01*
X0213584Y0331750D01*
X0214984Y0330350D01*
X0220182Y0330350D01*
X0220666Y0330834D01*
X0224175Y0330834D01*
X0225171Y0331830D01*
X0225171Y0332913D01*
X0225234Y0332850D01*
X0227734Y0330350D01*
X0234484Y0330350D01*
X0236783Y0328051D01*
X0236783Y0314551D01*
X0238953Y0312381D01*
X0239141Y0312381D01*
X0239276Y0312246D01*
X0239176Y0311873D01*
X0239176Y0310585D01*
X0243243Y0310585D01*
X0243243Y0310404D01*
X0243424Y0310404D01*
X0243424Y0310585D01*
X0247491Y0310585D01*
X0247491Y0311873D01*
X0247391Y0312246D01*
X0247691Y0312546D01*
X0247691Y0315755D01*
X0248163Y0314616D01*
X0249049Y0313730D01*
X0250207Y0313250D01*
X0251460Y0313250D01*
X0252618Y0313730D01*
X0253333Y0314445D01*
X0254049Y0313730D01*
X0255207Y0313250D01*
X0256460Y0313250D01*
X0257618Y0313730D01*
X0258504Y0314616D01*
X0258983Y0315773D01*
X0258983Y0317027D01*
X0258504Y0318184D01*
X0257618Y0319070D01*
X0256460Y0319550D01*
X0255582Y0319550D01*
X0250777Y0324355D01*
X0247526Y0324355D01*
X0246695Y0325187D01*
X0246240Y0325187D01*
X0246483Y0325773D01*
X0246483Y0327027D01*
X0246004Y0328184D01*
X0245338Y0328850D01*
X0248182Y0328850D01*
X0249383Y0330051D01*
X0250383Y0331051D01*
X0250383Y0334188D01*
X0251006Y0334188D01*
X0252002Y0335184D01*
X0252002Y0340923D01*
X0251525Y0341400D01*
X0252002Y0341877D01*
X0252002Y0347616D01*
X0251296Y0348322D01*
X0251483Y0348773D01*
X0251483Y0350027D01*
X0251004Y0351184D01*
X0250338Y0351850D01*
X0256537Y0351850D01*
X0257533Y0352846D01*
X0257533Y0359954D01*
X0256537Y0360950D01*
X0255383Y0360950D01*
X0255383Y0360999D01*
X0254182Y0362200D01*
X0252932Y0363450D01*
X0238984Y0363450D01*
X0237783Y0362249D01*
X0237002Y0361468D01*
X0237002Y0362616D01*
X0236006Y0363612D01*
X0230661Y0363612D01*
X0229665Y0362616D01*
X0229665Y0361796D01*
X0222831Y0361796D01*
X0221630Y0360596D01*
X0219484Y0358450D01*
X0219483Y0358450D01*
X0219483Y0359604D01*
X0218487Y0360600D01*
X0208179Y0360600D01*
X0207183Y0359604D01*
X0207183Y0358450D01*
X0207182Y0358450D01*
X0205037Y0360596D01*
X0203836Y0361796D01*
X0197002Y0361796D01*
X0197002Y0362616D01*
X0196006Y0363612D01*
X0190661Y0363612D01*
X0189665Y0362616D01*
X0189665Y0356877D01*
X0190142Y0356400D01*
X0189665Y0355923D01*
X0189665Y0355104D01*
X0188138Y0355104D01*
X0183984Y0350950D01*
X0182783Y0349749D01*
X0182783Y0335051D01*
X0183984Y0333850D01*
X0185533Y0332301D01*
X0186734Y0331100D01*
X0189984Y0331100D01*
X0191283Y0329801D01*
X0191283Y0327509D01*
X0191004Y0328184D01*
X0190118Y0329070D01*
X0188960Y0329550D01*
X0187707Y0329550D01*
X0186549Y0329070D01*
X0185663Y0328184D01*
X0185183Y0327027D01*
X0185183Y0325773D01*
X0185509Y0324987D01*
X0183424Y0324987D01*
X0183424Y0322396D01*
X0183243Y0322396D01*
X0183243Y0324987D01*
X0180478Y0324987D01*
X0180097Y0324884D01*
X0179755Y0324687D01*
X0179476Y0324408D01*
X0179278Y0324066D01*
X0179176Y0323684D01*
X0179176Y0322396D01*
X0183243Y0322396D01*
X0183243Y0322215D01*
X0179176Y0322215D01*
X0179176Y0320927D01*
X0179276Y0320554D01*
X0178976Y0320254D01*
X0178976Y0316483D01*
X0179059Y0316400D01*
X0178976Y0316317D01*
X0178976Y0312546D01*
X0179059Y0312463D01*
X0178976Y0312380D01*
X0178976Y0308609D01*
X0179972Y0307613D01*
X0181283Y0307613D01*
X0181283Y0303805D01*
X0180663Y0303184D01*
X0180183Y0302027D01*
X0180183Y0300773D01*
X0180183Y0301385D02*
X0173577Y0301385D01*
X0174502Y0302384D02*
X0180331Y0302384D01*
X0180861Y0303382D02*
X0174502Y0303382D01*
X0174502Y0304381D02*
X0181283Y0304381D01*
X0181283Y0305379D02*
X0174502Y0305379D01*
X0174502Y0306378D02*
X0181283Y0306378D01*
X0181283Y0307376D02*
X0174502Y0307376D01*
X0174502Y0308375D02*
X0179210Y0308375D01*
X0178976Y0309373D02*
X0173571Y0309373D01*
X0178976Y0310372D02*
X0165433Y0310372D01*
X0165433Y0311370D02*
X0178976Y0311370D01*
X0178976Y0312369D02*
X0165433Y0312369D01*
X0165433Y0313367D02*
X0178976Y0313367D01*
X0178976Y0314366D02*
X0165433Y0314366D01*
X0165433Y0315364D02*
X0178976Y0315364D01*
X0179022Y0316363D02*
X0165433Y0316363D01*
X0165433Y0317361D02*
X0178976Y0317361D01*
X0178976Y0318360D02*
X0165433Y0318360D01*
X0165433Y0319358D02*
X0178976Y0319358D01*
X0179079Y0320357D02*
X0165433Y0320357D01*
X0165433Y0321355D02*
X0179176Y0321355D01*
X0179176Y0323352D02*
X0165433Y0323352D01*
X0165433Y0322354D02*
X0183243Y0322354D01*
X0183243Y0323352D02*
X0183424Y0323352D01*
X0183424Y0324351D02*
X0183243Y0324351D01*
X0185359Y0325349D02*
X0174502Y0325349D01*
X0174495Y0324351D02*
X0179443Y0324351D01*
X0174502Y0326348D02*
X0185183Y0326348D01*
X0185316Y0327346D02*
X0174502Y0327346D01*
X0174502Y0328345D02*
X0185823Y0328345D01*
X0187208Y0329343D02*
X0174502Y0329343D01*
X0174502Y0330342D02*
X0190742Y0330342D01*
X0191283Y0329343D02*
X0189459Y0329343D01*
X0190843Y0328345D02*
X0191283Y0328345D01*
X0186494Y0331340D02*
X0173651Y0331340D01*
X0165433Y0332339D02*
X0185495Y0332339D01*
X0184497Y0333337D02*
X0165433Y0333337D01*
X0165433Y0334336D02*
X0183498Y0334336D01*
X0182783Y0335334D02*
X0165433Y0335334D01*
X0165433Y0336333D02*
X0182783Y0336333D01*
X0182783Y0337332D02*
X0165433Y0337332D01*
X0165433Y0338330D02*
X0182783Y0338330D01*
X0182783Y0339329D02*
X0165433Y0339329D01*
X0165433Y0340327D02*
X0182783Y0340327D01*
X0182783Y0341326D02*
X0165433Y0341326D01*
X0165433Y0342324D02*
X0182783Y0342324D01*
X0182783Y0343323D02*
X0165433Y0343323D01*
X0165433Y0344321D02*
X0182783Y0344321D01*
X0182783Y0345320D02*
X0165433Y0345320D01*
X0165433Y0346318D02*
X0182783Y0346318D01*
X0182783Y0347317D02*
X0165433Y0347317D01*
X0165433Y0348315D02*
X0182783Y0348315D01*
X0182783Y0349314D02*
X0165433Y0349314D01*
X0165433Y0350312D02*
X0183346Y0350312D01*
X0184345Y0351311D02*
X0165433Y0351311D01*
X0165433Y0352309D02*
X0185343Y0352309D01*
X0186342Y0353308D02*
X0165433Y0353308D01*
X0165433Y0354306D02*
X0187340Y0354306D01*
X0189665Y0355305D02*
X0165433Y0355305D01*
X0165433Y0356303D02*
X0190045Y0356303D01*
X0189665Y0357302D02*
X0165433Y0357302D01*
X0165433Y0358300D02*
X0189665Y0358300D01*
X0189665Y0359299D02*
X0165433Y0359299D01*
X0165433Y0360297D02*
X0189665Y0360297D01*
X0189665Y0361296D02*
X0165433Y0361296D01*
X0165433Y0362294D02*
X0189665Y0362294D01*
X0190342Y0363293D02*
X0165433Y0363293D01*
X0165433Y0364291D02*
X0261233Y0364291D01*
X0261233Y0363293D02*
X0253090Y0363293D01*
X0254088Y0362294D02*
X0261233Y0362294D01*
X0261233Y0361296D02*
X0255087Y0361296D01*
X0257190Y0360297D02*
X0261233Y0360297D01*
X0261233Y0359299D02*
X0257533Y0359299D01*
X0257533Y0358300D02*
X0261233Y0358300D01*
X0261233Y0357302D02*
X0257533Y0357302D01*
X0257533Y0356303D02*
X0261233Y0356303D01*
X0261233Y0355305D02*
X0257533Y0355305D01*
X0257533Y0354306D02*
X0261233Y0354306D01*
X0261233Y0353308D02*
X0257533Y0353308D01*
X0256997Y0352309D02*
X0261233Y0352309D01*
X0261233Y0351311D02*
X0250877Y0351311D01*
X0251365Y0350312D02*
X0261233Y0350312D01*
X0261233Y0349314D02*
X0251483Y0349314D01*
X0251303Y0348315D02*
X0261233Y0348315D01*
X0261233Y0347317D02*
X0252002Y0347317D01*
X0252002Y0346318D02*
X0261233Y0346318D01*
X0261233Y0345320D02*
X0252002Y0345320D01*
X0252002Y0344321D02*
X0261233Y0344321D01*
X0261233Y0343323D02*
X0252002Y0343323D01*
X0252002Y0342324D02*
X0261233Y0342324D01*
X0261233Y0341326D02*
X0251599Y0341326D01*
X0252002Y0340327D02*
X0261233Y0340327D01*
X0261233Y0339329D02*
X0252002Y0339329D01*
X0252002Y0338330D02*
X0261233Y0338330D01*
X0261233Y0337332D02*
X0252002Y0337332D01*
X0252002Y0336333D02*
X0261233Y0336333D01*
X0261233Y0335334D02*
X0252002Y0335334D01*
X0251154Y0334336D02*
X0261233Y0334336D01*
X0261233Y0333337D02*
X0250383Y0333337D01*
X0250383Y0332339D02*
X0261233Y0332339D01*
X0253015Y0331340D02*
X0250383Y0331340D01*
X0249674Y0330342D02*
X0252165Y0330342D01*
X0252165Y0329343D02*
X0248676Y0329343D01*
X0245843Y0328345D02*
X0252165Y0328345D01*
X0252165Y0327346D02*
X0246351Y0327346D01*
X0246483Y0326348D02*
X0252165Y0326348D01*
X0252165Y0325349D02*
X0246308Y0325349D01*
X0250782Y0324351D02*
X0252171Y0324351D01*
X0251780Y0323352D02*
X0261233Y0323352D01*
X0261233Y0322354D02*
X0252779Y0322354D01*
X0253777Y0321355D02*
X0261233Y0321355D01*
X0261233Y0320357D02*
X0254776Y0320357D01*
X0256923Y0319358D02*
X0261233Y0319358D01*
X0261233Y0318360D02*
X0258328Y0318360D01*
X0258845Y0317361D02*
X0261233Y0317361D01*
X0261233Y0316363D02*
X0258983Y0316363D01*
X0258814Y0315364D02*
X0261233Y0315364D01*
X0261233Y0314366D02*
X0258254Y0314366D01*
X0256743Y0313367D02*
X0261233Y0313367D01*
X0261233Y0312369D02*
X0247513Y0312369D01*
X0247491Y0311370D02*
X0261233Y0311370D01*
X0261233Y0310372D02*
X0247491Y0310372D01*
X0247491Y0310404D02*
X0243424Y0310404D01*
X0243424Y0307813D01*
X0246188Y0307813D01*
X0246570Y0307916D01*
X0246912Y0308113D01*
X0247191Y0308392D01*
X0247389Y0308734D01*
X0247491Y0309116D01*
X0247491Y0310404D01*
X0247491Y0309373D02*
X0253095Y0309373D01*
X0252165Y0308375D02*
X0247173Y0308375D01*
X0243424Y0308375D02*
X0243243Y0308375D01*
X0243243Y0307813D02*
X0243243Y0310404D01*
X0239176Y0310404D01*
X0239176Y0309116D01*
X0239278Y0308734D01*
X0239476Y0308392D01*
X0239755Y0308113D01*
X0240097Y0307916D01*
X0240478Y0307813D01*
X0243243Y0307813D01*
X0243243Y0309373D02*
X0243424Y0309373D01*
X0243424Y0310372D02*
X0243243Y0310372D01*
X0239176Y0310372D02*
X0236998Y0310372D01*
X0237947Y0309373D02*
X0239176Y0309373D01*
X0239493Y0308375D02*
X0238360Y0308375D01*
X0238733Y0307376D02*
X0252165Y0307376D01*
X0252165Y0306378D02*
X0238733Y0306378D01*
X0238733Y0305379D02*
X0252165Y0305379D01*
X0252165Y0304381D02*
X0238342Y0304381D01*
X0237928Y0303382D02*
X0252165Y0303382D01*
X0252165Y0302384D02*
X0236954Y0302384D01*
X0235337Y0301385D02*
X0253090Y0301385D01*
X0257259Y0296393D02*
X0165433Y0296393D01*
X0165433Y0297391D02*
X0258152Y0297391D01*
X0256883Y0295394D02*
X0165433Y0295394D01*
X0165433Y0294396D02*
X0256883Y0294396D01*
X0261233Y0298390D02*
X0184297Y0298390D01*
X0185776Y0299388D02*
X0261233Y0299388D01*
X0261233Y0300387D02*
X0186323Y0300387D01*
X0186483Y0301385D02*
X0191329Y0301385D01*
X0189713Y0302384D02*
X0186335Y0302384D01*
X0185806Y0303382D02*
X0188738Y0303382D01*
X0188325Y0304381D02*
X0185383Y0304381D01*
X0185383Y0305379D02*
X0187933Y0305379D01*
X0187933Y0306378D02*
X0185383Y0306378D01*
X0185383Y0307376D02*
X0187933Y0307376D01*
X0188306Y0308375D02*
X0187456Y0308375D01*
X0187691Y0309373D02*
X0188720Y0309373D01*
X0189668Y0310372D02*
X0187691Y0310372D01*
X0187691Y0311370D02*
X0191222Y0311370D01*
X0187691Y0312369D02*
X0214465Y0312369D01*
X0215445Y0311370D02*
X0215464Y0311370D01*
X0211222Y0311370D02*
X0204864Y0311370D01*
X0203833Y0311370D02*
X0202833Y0311370D01*
X0202833Y0310372D02*
X0203833Y0310372D01*
X0203833Y0309373D02*
X0202833Y0309373D01*
X0202833Y0308375D02*
X0203833Y0308375D01*
X0203833Y0307376D02*
X0202833Y0307376D01*
X0202833Y0305379D02*
X0203833Y0305379D01*
X0203833Y0304381D02*
X0202833Y0304381D01*
X0202833Y0303382D02*
X0203833Y0303382D01*
X0203833Y0302384D02*
X0202833Y0302384D01*
X0202833Y0301385D02*
X0203833Y0301385D01*
X0204727Y0301385D02*
X0211329Y0301385D01*
X0209713Y0302384D02*
X0206652Y0302384D01*
X0207568Y0303382D02*
X0208738Y0303382D01*
X0208325Y0304381D02*
X0208141Y0304381D01*
X0208159Y0308375D02*
X0208306Y0308375D01*
X0208720Y0309373D02*
X0207601Y0309373D01*
X0206713Y0310372D02*
X0209668Y0310372D01*
X0201803Y0311370D02*
X0195445Y0311370D01*
X0196998Y0310372D02*
X0199953Y0310372D01*
X0199066Y0309373D02*
X0197947Y0309373D01*
X0198360Y0308375D02*
X0198507Y0308375D01*
X0198526Y0304381D02*
X0198342Y0304381D01*
X0197928Y0303382D02*
X0199098Y0303382D01*
X0200015Y0302384D02*
X0196954Y0302384D01*
X0195337Y0301385D02*
X0201940Y0301385D01*
X0215337Y0301385D02*
X0221329Y0301385D01*
X0219713Y0302384D02*
X0216954Y0302384D01*
X0217928Y0303382D02*
X0218738Y0303382D01*
X0225337Y0301385D02*
X0231329Y0301385D01*
X0229713Y0302384D02*
X0226954Y0302384D01*
X0227928Y0303382D02*
X0228738Y0303382D01*
X0235445Y0311370D02*
X0239176Y0311370D01*
X0239153Y0312369D02*
X0230264Y0312369D01*
X0229265Y0313367D02*
X0237967Y0313367D01*
X0236968Y0314366D02*
X0228267Y0314366D01*
X0227268Y0315364D02*
X0236783Y0315364D01*
X0236783Y0316363D02*
X0226270Y0316363D01*
X0225271Y0317361D02*
X0236783Y0317361D01*
X0236783Y0318360D02*
X0227975Y0318360D01*
X0226192Y0318360D02*
X0224273Y0318360D01*
X0229496Y0319358D02*
X0236783Y0319358D01*
X0236783Y0320357D02*
X0230061Y0320357D01*
X0230233Y0321355D02*
X0236783Y0321355D01*
X0236783Y0322354D02*
X0230098Y0322354D01*
X0229586Y0323352D02*
X0236783Y0323352D01*
X0236783Y0324351D02*
X0228191Y0324351D01*
X0227345Y0325349D02*
X0236783Y0325349D01*
X0236783Y0326348D02*
X0224164Y0326348D01*
X0224164Y0327346D02*
X0223196Y0327346D01*
X0223196Y0328345D02*
X0224164Y0328345D01*
X0224164Y0329343D02*
X0223196Y0329343D01*
X0224682Y0331340D02*
X0226744Y0331340D01*
X0225745Y0332339D02*
X0225171Y0332339D01*
X0226992Y0329343D02*
X0235491Y0329343D01*
X0236489Y0328345D02*
X0227345Y0328345D01*
X0227345Y0327346D02*
X0236783Y0327346D01*
X0234492Y0330342D02*
X0211230Y0330342D01*
X0211230Y0331340D02*
X0213994Y0331340D01*
X0213392Y0329343D02*
X0212774Y0329343D01*
X0211440Y0332339D02*
X0211230Y0332339D01*
X0211230Y0337251D02*
X0211230Y0342403D01*
X0209383Y0344249D01*
X0209032Y0344600D01*
X0219252Y0344600D01*
X0219215Y0344464D01*
X0219215Y0343518D01*
X0219215Y0342573D01*
X0219305Y0342239D01*
X0219215Y0341905D01*
X0219215Y0340959D01*
X0219215Y0340052D01*
X0219015Y0339852D01*
X0219015Y0339027D01*
X0218960Y0339050D01*
X0217707Y0339050D01*
X0216549Y0338570D01*
X0215663Y0337684D01*
X0215470Y0337218D01*
X0215118Y0337570D01*
X0213960Y0338050D01*
X0212707Y0338050D01*
X0211549Y0337570D01*
X0211230Y0337251D01*
X0211230Y0337332D02*
X0211310Y0337332D01*
X0211230Y0338330D02*
X0216309Y0338330D01*
X0215517Y0337332D02*
X0215357Y0337332D01*
X0219015Y0339329D02*
X0211230Y0339329D01*
X0211230Y0340327D02*
X0219215Y0340327D01*
X0219215Y0340959D02*
X0222093Y0340959D01*
X0222093Y0340959D01*
X0219215Y0340959D01*
X0219215Y0341326D02*
X0211230Y0341326D01*
X0211230Y0342324D02*
X0219282Y0342324D01*
X0219215Y0343323D02*
X0210310Y0343323D01*
X0209311Y0344321D02*
X0219215Y0344321D01*
X0219215Y0343518D02*
X0222093Y0343518D01*
X0219215Y0343518D01*
X0222093Y0343518D02*
X0222093Y0343518D01*
X0222093Y0343518D01*
X0222093Y0340959D01*
X0222093Y0340959D01*
X0222093Y0343207D01*
X0222093Y0343518D01*
X0222093Y0343518D01*
X0224971Y0343518D01*
X0224971Y0342573D01*
X0224882Y0342239D01*
X0224971Y0341905D01*
X0224971Y0340959D01*
X0222093Y0340959D01*
X0222093Y0340959D01*
X0224971Y0340959D01*
X0224971Y0340450D01*
X0225682Y0340450D01*
X0226867Y0339265D01*
X0228016Y0339741D01*
X0229093Y0339741D01*
X0224971Y0343863D01*
X0224971Y0343518D01*
X0222093Y0343518D01*
X0222093Y0343323D02*
X0222093Y0343323D01*
X0222093Y0342324D02*
X0222093Y0342324D01*
X0222093Y0341326D02*
X0222093Y0341326D01*
X0224971Y0341326D02*
X0227509Y0341326D01*
X0226510Y0342324D02*
X0224905Y0342324D01*
X0224971Y0343323D02*
X0225512Y0343323D01*
X0225805Y0340327D02*
X0228507Y0340327D01*
X0227020Y0339329D02*
X0226804Y0339329D01*
X0233818Y0338538D02*
X0233818Y0337569D01*
X0236802Y0337569D01*
X0236802Y0336331D01*
X0237365Y0335768D01*
X0237365Y0337569D01*
X0240349Y0337569D01*
X0241318Y0337569D01*
X0241318Y0338538D01*
X0244302Y0338538D01*
X0244302Y0340416D01*
X0244200Y0340798D01*
X0244002Y0341140D01*
X0243883Y0341259D01*
X0244502Y0341877D01*
X0244502Y0347616D01*
X0243506Y0348612D01*
X0243444Y0348612D01*
X0244182Y0349350D01*
X0245183Y0349350D01*
X0245183Y0348773D01*
X0245370Y0348322D01*
X0244665Y0347616D01*
X0244665Y0341877D01*
X0245142Y0341400D01*
X0244665Y0340923D01*
X0244665Y0335184D01*
X0245661Y0334188D01*
X0246283Y0334188D01*
X0246283Y0332950D01*
X0240182Y0332950D01*
X0238744Y0334388D01*
X0240349Y0334388D01*
X0240349Y0337569D01*
X0240349Y0338538D01*
X0237365Y0338538D01*
X0237365Y0339350D01*
X0236802Y0339350D01*
X0236802Y0338538D01*
X0233818Y0338538D01*
X0233818Y0338330D02*
X0240349Y0338330D01*
X0241318Y0338330D02*
X0244665Y0338330D01*
X0244302Y0337569D02*
X0244302Y0335691D01*
X0244200Y0335309D01*
X0244002Y0334967D01*
X0243723Y0334688D01*
X0243381Y0334490D01*
X0242999Y0334388D01*
X0241318Y0334388D01*
X0241318Y0337569D01*
X0244302Y0337569D01*
X0244302Y0337332D02*
X0244665Y0337332D01*
X0244665Y0336333D02*
X0244302Y0336333D01*
X0244206Y0335334D02*
X0244665Y0335334D01*
X0245513Y0334336D02*
X0238796Y0334336D01*
X0239795Y0333337D02*
X0246283Y0333337D01*
X0241318Y0335334D02*
X0240349Y0335334D01*
X0240349Y0336333D02*
X0241318Y0336333D01*
X0241318Y0337332D02*
X0240349Y0337332D01*
X0237365Y0337332D02*
X0236802Y0337332D01*
X0236802Y0336333D02*
X0237365Y0336333D01*
X0237365Y0339329D02*
X0236802Y0339329D01*
X0243950Y0341326D02*
X0245067Y0341326D01*
X0244665Y0342324D02*
X0244502Y0342324D01*
X0244502Y0343323D02*
X0244665Y0343323D01*
X0244665Y0344321D02*
X0244502Y0344321D01*
X0244502Y0345320D02*
X0244665Y0345320D01*
X0244665Y0346318D02*
X0244502Y0346318D01*
X0244502Y0347317D02*
X0244665Y0347317D01*
X0245364Y0348315D02*
X0243803Y0348315D01*
X0244146Y0349314D02*
X0245183Y0349314D01*
X0244665Y0340327D02*
X0244302Y0340327D01*
X0244302Y0339329D02*
X0244665Y0339329D01*
X0237828Y0362294D02*
X0237002Y0362294D01*
X0236325Y0363293D02*
X0238827Y0363293D01*
X0243380Y0368285D02*
X0183286Y0368285D01*
X0183106Y0368134D02*
X0185645Y0370265D01*
X0187303Y0373135D01*
X0187303Y0373135D01*
X0187878Y0376400D01*
X0187303Y0379665D01*
X0185645Y0382535D01*
X0185645Y0382535D01*
X0183106Y0384666D01*
X0183106Y0384666D01*
X0179991Y0385800D01*
X0176676Y0385800D01*
X0173561Y0384666D01*
X0173561Y0384666D01*
X0171021Y0382535D01*
X0169364Y0379665D01*
X0169364Y0379665D01*
X0168788Y0376400D01*
X0169364Y0373135D01*
X0171021Y0370265D01*
X0171021Y0370265D01*
X0173561Y0368134D01*
X0176676Y0367000D01*
X0179203Y0367000D01*
X0179991Y0367000D01*
X0183106Y0368134D01*
X0183106Y0368134D01*
X0184476Y0369284D02*
X0242190Y0369284D01*
X0241021Y0370265D02*
X0243561Y0368134D01*
X0246676Y0367000D01*
X0247463Y0367000D01*
X0249991Y0367000D01*
X0253106Y0368134D01*
X0255645Y0370265D01*
X0257303Y0373135D01*
X0257303Y0373135D01*
X0257878Y0376400D01*
X0257303Y0379665D01*
X0255645Y0382535D01*
X0253106Y0384666D01*
X0249991Y0385800D01*
X0246676Y0385800D01*
X0243561Y0384666D01*
X0243561Y0384666D01*
X0241021Y0382535D01*
X0239364Y0379665D01*
X0239364Y0379665D01*
X0238788Y0376400D01*
X0239364Y0373135D01*
X0241021Y0370265D01*
X0241021Y0370265D01*
X0241011Y0370282D02*
X0185655Y0370282D01*
X0185645Y0370265D02*
X0185645Y0370265D01*
X0185645Y0370265D01*
X0186232Y0371281D02*
X0240435Y0371281D01*
X0239858Y0372279D02*
X0186808Y0372279D01*
X0187328Y0373278D02*
X0239339Y0373278D01*
X0239364Y0373135D02*
X0239364Y0373135D01*
X0239163Y0374276D02*
X0187504Y0374276D01*
X0187680Y0375275D02*
X0238987Y0375275D01*
X0238811Y0376273D02*
X0187856Y0376273D01*
X0187878Y0376400D02*
X0187878Y0376400D01*
X0187725Y0377272D02*
X0238942Y0377272D01*
X0238788Y0376400D02*
X0238788Y0376400D01*
X0239118Y0378270D02*
X0187549Y0378270D01*
X0187372Y0379269D02*
X0239294Y0379269D01*
X0239712Y0380268D02*
X0186955Y0380268D01*
X0187303Y0379665D02*
X0187303Y0379665D01*
X0186378Y0381266D02*
X0240289Y0381266D01*
X0240865Y0382265D02*
X0185802Y0382265D01*
X0184778Y0383263D02*
X0241889Y0383263D01*
X0241021Y0382535D02*
X0241021Y0382535D01*
X0241021Y0382535D01*
X0243079Y0384262D02*
X0183588Y0384262D01*
X0181474Y0385260D02*
X0245192Y0385260D01*
X0251474Y0385260D02*
X0261233Y0385260D01*
X0261233Y0384262D02*
X0253588Y0384262D01*
X0253106Y0384666D02*
X0253106Y0384666D01*
X0254778Y0383263D02*
X0261233Y0383263D01*
X0261233Y0382265D02*
X0255802Y0382265D01*
X0255645Y0382535D02*
X0255645Y0382535D01*
X0256378Y0381266D02*
X0261233Y0381266D01*
X0261233Y0380268D02*
X0256955Y0380268D01*
X0257303Y0379665D02*
X0257303Y0379665D01*
X0257372Y0379269D02*
X0261233Y0379269D01*
X0261233Y0378270D02*
X0257549Y0378270D01*
X0257725Y0377272D02*
X0261233Y0377272D01*
X0261233Y0376273D02*
X0257856Y0376273D01*
X0257878Y0376400D02*
X0257878Y0376400D01*
X0257680Y0375275D02*
X0261233Y0375275D01*
X0261233Y0374276D02*
X0257504Y0374276D01*
X0257328Y0373278D02*
X0261233Y0373278D01*
X0261233Y0372279D02*
X0256808Y0372279D01*
X0256232Y0371281D02*
X0261233Y0371281D01*
X0261233Y0370282D02*
X0255655Y0370282D01*
X0255645Y0370265D02*
X0255645Y0370265D01*
X0255645Y0370265D01*
X0254476Y0369284D02*
X0261233Y0369284D01*
X0261233Y0368285D02*
X0253286Y0368285D01*
X0253106Y0368134D02*
X0253106Y0368134D01*
X0250779Y0367287D02*
X0261233Y0367287D01*
X0261233Y0366288D02*
X0165433Y0366288D01*
X0165433Y0365290D02*
X0261233Y0365290D01*
X0245888Y0367287D02*
X0180779Y0367287D01*
X0179991Y0367000D02*
X0179991Y0367000D01*
X0175888Y0367287D02*
X0165433Y0367287D01*
X0165433Y0368285D02*
X0173380Y0368285D01*
X0173561Y0368134D02*
X0173561Y0368134D01*
X0172190Y0369284D02*
X0165433Y0369284D01*
X0165433Y0370282D02*
X0171011Y0370282D01*
X0170435Y0371281D02*
X0165433Y0371281D01*
X0165433Y0372279D02*
X0169858Y0372279D01*
X0169364Y0373135D02*
X0169364Y0373135D01*
X0169339Y0373278D02*
X0165433Y0373278D01*
X0165433Y0374276D02*
X0169163Y0374276D01*
X0168987Y0375275D02*
X0165433Y0375275D01*
X0165433Y0376273D02*
X0168811Y0376273D01*
X0168788Y0376400D02*
X0168788Y0376400D01*
X0168942Y0377272D02*
X0165433Y0377272D01*
X0165433Y0378270D02*
X0169118Y0378270D01*
X0169294Y0379269D02*
X0165433Y0379269D01*
X0165433Y0380268D02*
X0169712Y0380268D01*
X0170289Y0381266D02*
X0165433Y0381266D01*
X0165433Y0382265D02*
X0170865Y0382265D01*
X0171021Y0382535D02*
X0171021Y0382535D01*
X0171021Y0382535D01*
X0171889Y0383263D02*
X0165433Y0383263D01*
X0165433Y0384262D02*
X0173079Y0384262D01*
X0175192Y0385260D02*
X0165433Y0385260D01*
X0168364Y0386259D02*
X0261233Y0386259D01*
X0261233Y0387257D02*
X0169053Y0387257D01*
X0169283Y0388256D02*
X0261233Y0388256D01*
X0261233Y0389254D02*
X0169173Y0389254D01*
X0196325Y0363293D02*
X0230342Y0363293D01*
X0229665Y0362294D02*
X0197002Y0362294D01*
X0204337Y0361296D02*
X0222330Y0361296D01*
X0221331Y0360297D02*
X0218790Y0360297D01*
X0219483Y0359299D02*
X0220333Y0359299D01*
X0207876Y0360297D02*
X0205335Y0360297D01*
X0206334Y0359299D02*
X0207183Y0359299D01*
X0200134Y0349350D02*
X0197783Y0346999D01*
X0197783Y0339551D01*
X0198984Y0338350D01*
X0200984Y0336350D01*
X0201496Y0336350D01*
X0201496Y0335332D01*
X0197002Y0335332D01*
X0197002Y0340923D01*
X0196383Y0341541D01*
X0196502Y0341660D01*
X0196700Y0342002D01*
X0196802Y0342384D01*
X0196802Y0344262D01*
X0193818Y0344262D01*
X0193818Y0345231D01*
X0196802Y0345231D01*
X0196802Y0347109D01*
X0196737Y0347350D01*
X0197182Y0347350D01*
X0199182Y0349350D01*
X0200134Y0349350D01*
X0200098Y0349314D02*
X0199146Y0349314D01*
X0199099Y0348315D02*
X0198148Y0348315D01*
X0198101Y0347317D02*
X0196746Y0347317D01*
X0196802Y0346318D02*
X0197783Y0346318D01*
X0197783Y0345320D02*
X0196802Y0345320D01*
X0197783Y0344321D02*
X0193818Y0344321D01*
X0192849Y0344321D02*
X0189383Y0344321D01*
X0189865Y0344262D02*
X0189865Y0342384D01*
X0189967Y0342002D01*
X0190165Y0341660D01*
X0190283Y0341541D01*
X0189665Y0340923D01*
X0189665Y0340104D01*
X0189383Y0340104D01*
X0189383Y0342551D01*
X0189383Y0346551D01*
X0189865Y0347032D01*
X0189865Y0345231D01*
X0192849Y0345231D01*
X0192849Y0344262D01*
X0189865Y0344262D01*
X0189865Y0343323D02*
X0189383Y0343323D01*
X0189383Y0342324D02*
X0189881Y0342324D01*
X0190067Y0341326D02*
X0189383Y0341326D01*
X0189383Y0340327D02*
X0189665Y0340327D01*
X0189865Y0345320D02*
X0189383Y0345320D01*
X0189383Y0346318D02*
X0189865Y0346318D01*
X0196802Y0343323D02*
X0197783Y0343323D01*
X0197783Y0342324D02*
X0196786Y0342324D01*
X0196599Y0341326D02*
X0197783Y0341326D01*
X0197783Y0340327D02*
X0197002Y0340327D01*
X0197002Y0339329D02*
X0198006Y0339329D01*
X0199004Y0338330D02*
X0197002Y0338330D01*
X0197002Y0337332D02*
X0200003Y0337332D01*
X0201496Y0336333D02*
X0197002Y0336333D01*
X0197002Y0335334D02*
X0201496Y0335334D01*
X0180890Y0299388D02*
X0165433Y0299388D01*
X0165433Y0298390D02*
X0182370Y0298390D01*
X0247691Y0313367D02*
X0249924Y0313367D01*
X0248413Y0314366D02*
X0247691Y0314366D01*
X0247691Y0315364D02*
X0247853Y0315364D01*
X0251743Y0313367D02*
X0254924Y0313367D01*
X0253413Y0314366D02*
X0253254Y0314366D01*
X0243561Y0368134D02*
X0243561Y0368134D01*
M02*
