G75*
%MOIN*%
%OFA0B0*%
%FSLAX25Y25*%
%IPPOS*%
%LPD*%
%AMOC8*
5,1,8,0,0,1.08239X$1,22.5*
%
%ADD10C,0.00600*%
%ADD11C,0.00700*%
%ADD12C,0.00500*%
%ADD13C,0.00299*%
%ADD14C,0.00300*%
D10*
X0196233Y0311400D02*
X0196233Y0321222D01*
X0195036Y0320107D02*
X0195036Y0317839D01*
X0195036Y0318973D02*
X0191633Y0318973D01*
X0191633Y0316424D02*
X0195036Y0316424D01*
X0195036Y0314155D02*
X0191633Y0314155D01*
X0191633Y0312834D02*
X0191633Y0311700D01*
X0191633Y0312267D02*
X0195036Y0312267D01*
X0195036Y0311700D02*
X0195036Y0312834D01*
X0195036Y0314155D02*
X0191633Y0316424D01*
X0201633Y0315383D02*
X0205036Y0315383D01*
X0201633Y0317652D01*
X0205036Y0317652D01*
X0205036Y0319066D02*
X0205036Y0320768D01*
X0204469Y0321335D01*
X0202200Y0321335D01*
X0201633Y0320768D01*
X0201633Y0319066D01*
X0205036Y0319066D01*
X0204469Y0313969D02*
X0205036Y0313401D01*
X0205036Y0312267D01*
X0204469Y0311700D01*
X0202200Y0311700D01*
X0201633Y0312267D01*
X0201633Y0313401D01*
X0202200Y0313969D01*
X0203335Y0313969D01*
X0203335Y0312834D01*
X0211633Y0312267D02*
X0212200Y0311700D01*
X0211633Y0312267D02*
X0211633Y0313401D01*
X0212200Y0313969D01*
X0212768Y0313969D01*
X0213335Y0313401D01*
X0213335Y0312834D01*
X0213335Y0313401D02*
X0213902Y0313969D01*
X0214469Y0313969D01*
X0215036Y0313401D01*
X0215036Y0312267D01*
X0214469Y0311700D01*
X0212200Y0315383D02*
X0212200Y0315950D01*
X0211633Y0315950D01*
X0211633Y0315383D01*
X0212200Y0315383D01*
X0212200Y0317225D02*
X0211633Y0317792D01*
X0211633Y0318926D01*
X0212200Y0319493D01*
X0212768Y0319493D01*
X0213335Y0318926D01*
X0213335Y0318359D01*
X0213335Y0318926D02*
X0213902Y0319493D01*
X0214469Y0319493D01*
X0215036Y0318926D01*
X0215036Y0317792D01*
X0214469Y0317225D01*
X0215036Y0320908D02*
X0212768Y0320908D01*
X0211633Y0322042D01*
X0212768Y0323176D01*
X0215036Y0323176D01*
X0221633Y0321335D02*
X0223902Y0321335D01*
X0225036Y0320201D01*
X0223902Y0319066D01*
X0221633Y0319066D01*
X0222200Y0317652D02*
X0224469Y0317652D01*
X0225036Y0317085D01*
X0225036Y0315383D01*
X0221633Y0315383D01*
X0221633Y0317085D01*
X0222200Y0317652D01*
X0223335Y0319066D02*
X0223335Y0321335D01*
X0229333Y0323400D02*
X0229333Y0329400D01*
X0229335Y0329483D01*
X0229341Y0329566D01*
X0229350Y0329649D01*
X0229364Y0329731D01*
X0229381Y0329812D01*
X0229402Y0329893D01*
X0229426Y0329972D01*
X0229455Y0330050D01*
X0229486Y0330127D01*
X0229522Y0330202D01*
X0229560Y0330276D01*
X0229603Y0330348D01*
X0229648Y0330417D01*
X0229697Y0330485D01*
X0229748Y0330550D01*
X0229803Y0330613D01*
X0229860Y0330673D01*
X0229920Y0330730D01*
X0229983Y0330785D01*
X0230048Y0330836D01*
X0230116Y0330885D01*
X0230185Y0330930D01*
X0230257Y0330973D01*
X0230331Y0331011D01*
X0230406Y0331047D01*
X0230483Y0331078D01*
X0230561Y0331107D01*
X0230640Y0331131D01*
X0230721Y0331152D01*
X0230802Y0331169D01*
X0230884Y0331183D01*
X0230967Y0331192D01*
X0231050Y0331198D01*
X0231133Y0331200D01*
X0235533Y0331200D01*
X0235616Y0331198D01*
X0235699Y0331192D01*
X0235782Y0331183D01*
X0235864Y0331169D01*
X0235945Y0331152D01*
X0236026Y0331131D01*
X0236105Y0331107D01*
X0236183Y0331078D01*
X0236260Y0331047D01*
X0236335Y0331011D01*
X0236409Y0330973D01*
X0236481Y0330930D01*
X0236550Y0330885D01*
X0236618Y0330836D01*
X0236683Y0330785D01*
X0236746Y0330730D01*
X0236806Y0330673D01*
X0236863Y0330613D01*
X0236918Y0330550D01*
X0236969Y0330485D01*
X0237018Y0330417D01*
X0237063Y0330348D01*
X0237106Y0330276D01*
X0237144Y0330202D01*
X0237180Y0330127D01*
X0237211Y0330050D01*
X0237240Y0329972D01*
X0237264Y0329893D01*
X0237285Y0329812D01*
X0237302Y0329731D01*
X0237316Y0329649D01*
X0237325Y0329566D01*
X0237331Y0329483D01*
X0237333Y0329400D01*
X0237333Y0323400D01*
X0237331Y0323317D01*
X0237325Y0323234D01*
X0237316Y0323151D01*
X0237302Y0323069D01*
X0237285Y0322988D01*
X0237264Y0322907D01*
X0237240Y0322828D01*
X0237211Y0322750D01*
X0237180Y0322673D01*
X0237144Y0322598D01*
X0237106Y0322524D01*
X0237063Y0322452D01*
X0237018Y0322383D01*
X0236969Y0322315D01*
X0236918Y0322250D01*
X0236863Y0322187D01*
X0236806Y0322127D01*
X0236746Y0322070D01*
X0236683Y0322015D01*
X0236618Y0321964D01*
X0236550Y0321915D01*
X0236481Y0321870D01*
X0236409Y0321827D01*
X0236335Y0321789D01*
X0236260Y0321753D01*
X0236183Y0321722D01*
X0236105Y0321693D01*
X0236026Y0321669D01*
X0235945Y0321648D01*
X0235864Y0321631D01*
X0235782Y0321617D01*
X0235699Y0321608D01*
X0235616Y0321602D01*
X0235533Y0321600D01*
X0231133Y0321600D01*
X0231633Y0321335D02*
X0231633Y0319066D01*
X0235036Y0319066D01*
X0234469Y0317652D02*
X0235036Y0317085D01*
X0235036Y0315950D01*
X0234469Y0315383D01*
X0232200Y0315383D01*
X0231633Y0315950D01*
X0231633Y0317085D01*
X0232200Y0317652D01*
X0232200Y0313969D02*
X0231633Y0313401D01*
X0231633Y0312267D01*
X0232200Y0311700D01*
X0233335Y0312267D02*
X0233335Y0313401D01*
X0232768Y0313969D01*
X0232200Y0313969D01*
X0233335Y0312267D02*
X0233902Y0311700D01*
X0234469Y0311700D01*
X0235036Y0312267D01*
X0235036Y0313401D01*
X0234469Y0313969D01*
X0225036Y0313401D02*
X0225036Y0312267D01*
X0224469Y0311700D01*
X0223902Y0311700D01*
X0223335Y0312267D01*
X0223335Y0313401D01*
X0222768Y0313969D01*
X0222200Y0313969D01*
X0221633Y0313401D01*
X0221633Y0312267D01*
X0222200Y0311700D01*
X0224469Y0313969D02*
X0225036Y0313401D01*
X0231133Y0321600D02*
X0231050Y0321602D01*
X0230967Y0321608D01*
X0230884Y0321617D01*
X0230802Y0321631D01*
X0230721Y0321648D01*
X0230640Y0321669D01*
X0230561Y0321693D01*
X0230483Y0321722D01*
X0230406Y0321753D01*
X0230331Y0321789D01*
X0230257Y0321827D01*
X0230185Y0321870D01*
X0230116Y0321915D01*
X0230048Y0321964D01*
X0229983Y0322015D01*
X0229920Y0322070D01*
X0229860Y0322127D01*
X0229803Y0322187D01*
X0229748Y0322250D01*
X0229697Y0322315D01*
X0229648Y0322383D01*
X0229603Y0322452D01*
X0229560Y0322524D01*
X0229522Y0322598D01*
X0229486Y0322673D01*
X0229455Y0322750D01*
X0229426Y0322828D01*
X0229402Y0322907D01*
X0229381Y0322988D01*
X0229364Y0323069D01*
X0229350Y0323151D01*
X0229341Y0323234D01*
X0229335Y0323317D01*
X0229333Y0323400D01*
X0194424Y0356700D02*
X0194424Y0360103D01*
X0192156Y0360103D01*
X0190741Y0358969D02*
X0190174Y0358969D01*
X0190174Y0356700D01*
X0190741Y0356700D02*
X0189607Y0356700D01*
X0188286Y0357267D02*
X0188286Y0358401D01*
X0187719Y0358969D01*
X0186584Y0358969D01*
X0186017Y0358401D01*
X0186017Y0357834D01*
X0188286Y0357834D01*
X0188286Y0357267D02*
X0187719Y0356700D01*
X0186584Y0356700D01*
X0184603Y0356700D02*
X0183468Y0356700D01*
X0184035Y0356700D02*
X0184035Y0360103D01*
X0184603Y0360103D01*
X0182147Y0358401D02*
X0181580Y0358969D01*
X0179879Y0358969D01*
X0179879Y0360103D02*
X0179879Y0356700D01*
X0181580Y0356700D01*
X0182147Y0357267D01*
X0182147Y0358401D01*
X0184035Y0354670D02*
X0184035Y0354103D01*
X0184035Y0352969D02*
X0184035Y0350700D01*
X0183468Y0350700D02*
X0184603Y0350700D01*
X0186017Y0351834D02*
X0186017Y0354103D01*
X0184603Y0352969D02*
X0184035Y0352969D01*
X0182147Y0352401D02*
X0181580Y0352969D01*
X0180446Y0352969D01*
X0179879Y0352401D01*
X0179879Y0351834D01*
X0182147Y0351834D01*
X0182147Y0351267D02*
X0182147Y0352401D01*
X0182147Y0351267D02*
X0181580Y0350700D01*
X0180446Y0350700D01*
X0178464Y0351267D02*
X0177897Y0350700D01*
X0177330Y0351267D01*
X0176763Y0350700D01*
X0176195Y0351267D01*
X0176195Y0352969D01*
X0178464Y0352969D02*
X0178464Y0351267D01*
X0181173Y0347603D02*
X0180606Y0347036D01*
X0180606Y0346469D01*
X0181173Y0345901D01*
X0180606Y0345334D01*
X0180606Y0344767D01*
X0181173Y0344200D01*
X0182308Y0344200D01*
X0182875Y0344767D01*
X0181741Y0345901D02*
X0181173Y0345901D01*
X0181173Y0347603D02*
X0182308Y0347603D01*
X0182875Y0347036D01*
X0186173Y0343103D02*
X0187308Y0343103D01*
X0187875Y0342536D01*
X0186173Y0343103D02*
X0185606Y0342536D01*
X0185606Y0341969D01*
X0187875Y0339700D01*
X0185606Y0339700D01*
X0182875Y0337469D02*
X0181741Y0338603D01*
X0181741Y0335200D01*
X0182875Y0335200D02*
X0180606Y0335200D01*
X0176673Y0339700D02*
X0176673Y0343103D01*
X0178375Y0341401D01*
X0176106Y0341401D01*
X0186017Y0351834D02*
X0187151Y0350700D01*
X0188286Y0351834D01*
X0188286Y0354103D01*
X0193290Y0358401D02*
X0194424Y0358401D01*
X0190174Y0360103D02*
X0190174Y0360670D01*
X0190575Y0376700D02*
X0190007Y0377267D01*
X0190007Y0378401D01*
X0190575Y0378969D01*
X0191709Y0378969D01*
X0192276Y0378401D01*
X0192276Y0377267D01*
X0191709Y0376700D01*
X0190575Y0376700D01*
X0188593Y0376700D02*
X0188593Y0378969D01*
X0187459Y0378969D02*
X0186891Y0378969D01*
X0187459Y0378969D02*
X0188593Y0377834D01*
X0193691Y0377267D02*
X0194258Y0377834D01*
X0195392Y0377834D01*
X0195959Y0378401D01*
X0195392Y0378969D01*
X0193691Y0378969D01*
X0193691Y0377267D02*
X0194258Y0376700D01*
X0195959Y0376700D01*
X0197374Y0376700D02*
X0197374Y0378401D01*
X0197941Y0378969D01*
X0199642Y0378969D01*
X0199642Y0376700D01*
X0201057Y0377834D02*
X0203325Y0377834D01*
X0203325Y0377267D02*
X0203325Y0378401D01*
X0202758Y0378969D01*
X0201624Y0378969D01*
X0201057Y0378401D01*
X0201057Y0377834D01*
X0201624Y0376700D02*
X0202758Y0376700D01*
X0203325Y0377267D01*
X0204740Y0377267D02*
X0205307Y0376700D01*
X0206441Y0376700D01*
X0207009Y0377267D01*
X0206441Y0378401D02*
X0205307Y0378401D01*
X0204740Y0377834D01*
X0204740Y0377267D01*
X0206441Y0378401D02*
X0207009Y0378969D01*
X0207009Y0379536D01*
X0206441Y0380103D01*
X0205307Y0380103D01*
X0204740Y0379536D01*
X0205100Y0382200D02*
X0205667Y0382767D01*
X0205100Y0382200D02*
X0203966Y0382200D01*
X0203398Y0382767D01*
X0203398Y0383334D01*
X0203966Y0383901D01*
X0204533Y0383901D01*
X0203966Y0383901D02*
X0203398Y0384469D01*
X0203398Y0385036D01*
X0203966Y0385603D01*
X0205100Y0385603D01*
X0205667Y0385036D01*
X0207082Y0385603D02*
X0209350Y0385603D01*
X0209350Y0383901D01*
X0208216Y0384469D01*
X0207649Y0384469D01*
X0207082Y0383901D01*
X0207082Y0382767D01*
X0207649Y0382200D01*
X0208783Y0382200D01*
X0209350Y0382767D01*
X0210765Y0385036D02*
X0213033Y0382767D01*
X0213033Y0382200D01*
X0214448Y0382767D02*
X0214448Y0385036D01*
X0215015Y0385603D01*
X0216149Y0385603D01*
X0216716Y0385036D01*
X0216716Y0384469D01*
X0216149Y0383901D01*
X0214448Y0383901D01*
X0214448Y0382767D02*
X0215015Y0382200D01*
X0216149Y0382200D01*
X0216716Y0382767D01*
X0218131Y0382200D02*
X0219832Y0383901D01*
X0220400Y0383334D02*
X0218131Y0385603D01*
X0220400Y0385603D02*
X0220400Y0382200D01*
X0221814Y0382200D02*
X0221814Y0384469D01*
X0222948Y0385603D01*
X0224083Y0384469D01*
X0224083Y0382200D01*
X0224083Y0383901D02*
X0221814Y0383901D01*
X0221741Y0378969D02*
X0220040Y0378969D01*
X0219473Y0378401D01*
X0219473Y0376700D01*
X0218058Y0377267D02*
X0218058Y0378401D01*
X0217491Y0378969D01*
X0215789Y0378969D01*
X0214375Y0378401D02*
X0214375Y0377267D01*
X0213808Y0376700D01*
X0212673Y0376700D01*
X0212106Y0377834D02*
X0214375Y0377834D01*
X0214375Y0378401D02*
X0213808Y0378969D01*
X0212673Y0378969D01*
X0212106Y0378401D01*
X0212106Y0377834D01*
X0215789Y0376700D02*
X0217491Y0376700D01*
X0218058Y0377267D01*
X0221741Y0376700D02*
X0221741Y0378969D01*
X0223156Y0378401D02*
X0223156Y0377834D01*
X0225424Y0377834D01*
X0225424Y0377267D02*
X0225424Y0378401D01*
X0224857Y0378969D01*
X0223723Y0378969D01*
X0223156Y0378401D01*
X0223723Y0376700D02*
X0224857Y0376700D01*
X0225424Y0377267D01*
X0226839Y0377267D02*
X0227406Y0377834D01*
X0228540Y0377834D01*
X0229108Y0378401D01*
X0228540Y0378969D01*
X0226839Y0378969D01*
X0226839Y0377267D02*
X0227406Y0376700D01*
X0229108Y0376700D01*
X0230522Y0377834D02*
X0232791Y0377834D01*
X0232791Y0377267D02*
X0232791Y0378401D01*
X0232223Y0378969D01*
X0231089Y0378969D01*
X0230522Y0378401D01*
X0230522Y0377834D01*
X0231089Y0376700D02*
X0232223Y0376700D01*
X0232791Y0377267D01*
X0234158Y0378969D02*
X0234726Y0378969D01*
X0235860Y0377834D01*
X0235860Y0376700D02*
X0235860Y0378969D01*
X0237274Y0379536D02*
X0237274Y0378401D01*
X0237842Y0377834D01*
X0239543Y0377834D01*
X0239543Y0376700D02*
X0239543Y0380103D01*
X0237842Y0380103D01*
X0237274Y0379536D01*
X0213033Y0385603D02*
X0210765Y0385603D01*
X0210765Y0385036D01*
X0174781Y0358401D02*
X0174781Y0357267D01*
X0174214Y0356700D01*
X0173079Y0356700D01*
X0172512Y0357267D01*
X0172512Y0358401D01*
X0173079Y0358969D01*
X0174214Y0358969D01*
X0174781Y0358401D01*
X0171098Y0358401D02*
X0169963Y0358401D01*
X0170531Y0359536D02*
X0169963Y0360103D01*
X0170531Y0359536D02*
X0170531Y0356700D01*
D11*
X0174333Y0348900D02*
X0189333Y0348900D01*
X0189333Y0333900D01*
X0174333Y0333900D01*
X0174333Y0348900D01*
X0189333Y0333900D01*
X0189333Y0348900D02*
X0174333Y0333900D01*
D12*
X0238383Y0329555D02*
X0238383Y0328654D01*
X0238834Y0328203D01*
X0239284Y0328203D01*
X0239734Y0328654D01*
X0239734Y0329555D01*
X0239284Y0330005D01*
X0238834Y0330005D01*
X0238383Y0329555D01*
X0239734Y0329555D02*
X0240185Y0330005D01*
X0240635Y0330005D01*
X0241086Y0329555D01*
X0241086Y0328654D01*
X0240635Y0328203D01*
X0240185Y0328203D01*
X0239734Y0328654D01*
X0239734Y0327059D02*
X0239284Y0326608D01*
X0239284Y0325257D01*
X0238383Y0325257D02*
X0241086Y0325257D01*
X0241086Y0326608D01*
X0240635Y0327059D01*
X0239734Y0327059D01*
X0241086Y0324112D02*
X0241086Y0323211D01*
X0241086Y0323662D02*
X0238834Y0323662D01*
X0238383Y0323211D01*
X0238383Y0322761D01*
X0238834Y0322310D01*
D13*
X0170355Y0302492D02*
X0169449Y0303398D01*
X0170276Y0304500D01*
X0170236Y0304579D01*
X0170197Y0304618D01*
X0170158Y0304697D01*
X0170158Y0304736D01*
X0170118Y0304815D01*
X0170079Y0304854D01*
X0170040Y0304933D01*
X0170040Y0304972D01*
X0169961Y0305130D01*
X0169961Y0305169D01*
X0169922Y0305248D01*
X0169922Y0305287D01*
X0169882Y0305366D01*
X0169882Y0305445D01*
X0169843Y0305484D01*
X0168465Y0305720D01*
X0168465Y0306980D01*
X0169882Y0307216D01*
X0169882Y0307374D01*
X0169922Y0307413D01*
X0169922Y0307492D01*
X0169961Y0307531D01*
X0170000Y0307610D01*
X0170000Y0307689D01*
X0170040Y0307728D01*
X0170040Y0307807D01*
X0170079Y0307846D01*
X0170118Y0307925D01*
X0170158Y0307964D01*
X0170158Y0308043D01*
X0170197Y0308083D01*
X0170236Y0308161D01*
X0170276Y0308201D01*
X0169449Y0309342D01*
X0170355Y0310209D01*
X0171496Y0309421D01*
X0171536Y0309461D01*
X0171614Y0309500D01*
X0171654Y0309500D01*
X0171733Y0309539D01*
X0171772Y0309579D01*
X0171851Y0309618D01*
X0171890Y0309618D01*
X0171969Y0309657D01*
X0172008Y0309697D01*
X0172087Y0309697D01*
X0172166Y0309736D01*
X0172205Y0309736D01*
X0172284Y0309775D01*
X0172323Y0309775D01*
X0172402Y0309815D01*
X0172481Y0309815D01*
X0172717Y0311193D01*
X0173977Y0311193D01*
X0174213Y0309815D01*
X0174252Y0309815D01*
X0174331Y0309775D01*
X0174410Y0309775D01*
X0174449Y0309736D01*
X0174528Y0309736D01*
X0174607Y0309697D01*
X0174646Y0309697D01*
X0174725Y0309657D01*
X0174764Y0309618D01*
X0174843Y0309618D01*
X0174882Y0309579D01*
X0174961Y0309539D01*
X0175000Y0309500D01*
X0175079Y0309500D01*
X0175118Y0309461D01*
X0175197Y0309421D01*
X0176339Y0310209D01*
X0177205Y0309342D01*
X0176418Y0308201D01*
X0176457Y0308161D01*
X0176457Y0308083D01*
X0176496Y0308043D01*
X0176536Y0307964D01*
X0176575Y0307925D01*
X0176575Y0307846D01*
X0176614Y0307807D01*
X0176654Y0307728D01*
X0176654Y0307689D01*
X0176733Y0307531D01*
X0176733Y0307492D01*
X0176772Y0307413D01*
X0176772Y0307374D01*
X0176811Y0307295D01*
X0176811Y0307216D01*
X0178189Y0306980D01*
X0178189Y0305720D01*
X0176811Y0305484D01*
X0176811Y0305445D01*
X0176772Y0305366D01*
X0176772Y0305287D01*
X0176733Y0305248D01*
X0176733Y0305169D01*
X0176693Y0305130D01*
X0176654Y0305051D01*
X0176654Y0304972D01*
X0176614Y0304933D01*
X0176614Y0304854D01*
X0176575Y0304815D01*
X0176536Y0304736D01*
X0176496Y0304697D01*
X0176457Y0304618D01*
X0176457Y0304579D01*
X0176418Y0304500D01*
X0174052Y0304500D01*
X0173942Y0304798D02*
X0176566Y0304798D01*
X0176676Y0305095D02*
X0173832Y0305095D01*
X0173819Y0305130D02*
X0173937Y0305169D01*
X0174095Y0305248D01*
X0174173Y0305327D01*
X0174252Y0305366D01*
X0174331Y0305445D01*
X0174370Y0305523D01*
X0174449Y0305602D01*
X0174528Y0305760D01*
X0174567Y0305878D01*
X0174646Y0306035D01*
X0174646Y0306153D01*
X0174685Y0306272D01*
X0174685Y0306508D01*
X0174528Y0306980D01*
X0174370Y0307216D01*
X0174292Y0307295D01*
X0174173Y0307374D01*
X0174095Y0307453D01*
X0173977Y0307531D01*
X0173859Y0307571D01*
X0173740Y0307649D01*
X0173622Y0307649D01*
X0173465Y0307689D01*
X0173189Y0307689D01*
X0173071Y0307649D01*
X0172953Y0307649D01*
X0172835Y0307571D01*
X0172717Y0307531D01*
X0172481Y0307374D01*
X0172323Y0307216D01*
X0172166Y0306980D01*
X0172126Y0306862D01*
X0172048Y0306744D01*
X0172048Y0306626D01*
X0172008Y0306508D01*
X0172008Y0306153D01*
X0172048Y0306035D01*
X0172048Y0305957D01*
X0172087Y0305878D01*
X0172126Y0305760D01*
X0172166Y0305681D01*
X0172244Y0305602D01*
X0172284Y0305523D01*
X0172441Y0305366D01*
X0172520Y0305327D01*
X0172599Y0305248D01*
X0172835Y0305130D01*
X0172048Y0303004D01*
X0172048Y0303043D01*
X0171969Y0303043D01*
X0171929Y0303083D01*
X0171890Y0303083D01*
X0171851Y0303122D01*
X0171811Y0303122D01*
X0171772Y0303161D01*
X0171693Y0303161D01*
X0171654Y0303201D01*
X0171614Y0303201D01*
X0171536Y0303279D01*
X0171496Y0303279D01*
X0170355Y0302492D01*
X0170133Y0302714D02*
X0170676Y0302714D01*
X0171107Y0303011D02*
X0169835Y0303011D01*
X0169538Y0303309D02*
X0172161Y0303309D01*
X0172271Y0303607D02*
X0169606Y0303607D01*
X0169829Y0303904D02*
X0172381Y0303904D01*
X0172491Y0304202D02*
X0170053Y0304202D01*
X0170276Y0304500D02*
X0172602Y0304500D01*
X0172712Y0304798D02*
X0170127Y0304798D01*
X0169978Y0305095D02*
X0172822Y0305095D01*
X0172414Y0305393D02*
X0169882Y0305393D01*
X0168638Y0305691D02*
X0172161Y0305691D01*
X0172048Y0305988D02*
X0168465Y0305988D01*
X0168465Y0306286D02*
X0172008Y0306286D01*
X0172034Y0306584D02*
X0168465Y0306584D01*
X0168465Y0306882D02*
X0172133Y0306882D01*
X0172298Y0307179D02*
X0169660Y0307179D01*
X0169922Y0307477D02*
X0172635Y0307477D01*
X0174058Y0307477D02*
X0176740Y0307477D01*
X0176630Y0307775D02*
X0170040Y0307775D01*
X0170187Y0308073D02*
X0176467Y0308073D01*
X0176535Y0308370D02*
X0170153Y0308370D01*
X0169937Y0308668D02*
X0176740Y0308668D01*
X0176945Y0308966D02*
X0169722Y0308966D01*
X0169506Y0309263D02*
X0177151Y0309263D01*
X0176986Y0309561D02*
X0175400Y0309561D01*
X0174917Y0309561D02*
X0171754Y0309561D01*
X0171293Y0309561D02*
X0169678Y0309561D01*
X0169989Y0309859D02*
X0170862Y0309859D01*
X0170430Y0310157D02*
X0170300Y0310157D01*
X0172488Y0309859D02*
X0174205Y0309859D01*
X0174154Y0310157D02*
X0172539Y0310157D01*
X0172590Y0310454D02*
X0174103Y0310454D01*
X0174052Y0310752D02*
X0172641Y0310752D01*
X0172692Y0311050D02*
X0174001Y0311050D01*
X0175832Y0309859D02*
X0176688Y0309859D01*
X0176391Y0310157D02*
X0176264Y0310157D01*
X0177027Y0307179D02*
X0174395Y0307179D01*
X0174561Y0306882D02*
X0178189Y0306882D01*
X0178189Y0306584D02*
X0174660Y0306584D01*
X0174685Y0306286D02*
X0178189Y0306286D01*
X0178189Y0305988D02*
X0174623Y0305988D01*
X0174493Y0305691D02*
X0178017Y0305691D01*
X0176785Y0305393D02*
X0174279Y0305393D01*
X0173819Y0305130D02*
X0174607Y0303004D01*
X0174646Y0303043D01*
X0174725Y0303043D01*
X0174764Y0303083D01*
X0174803Y0303083D01*
X0174843Y0303122D01*
X0174882Y0303122D01*
X0174922Y0303161D01*
X0174961Y0303161D01*
X0175000Y0303201D01*
X0175040Y0303201D01*
X0175079Y0303240D01*
X0175118Y0303240D01*
X0175158Y0303279D01*
X0175197Y0303279D01*
X0176339Y0302492D01*
X0177205Y0303398D01*
X0176418Y0304500D01*
X0176630Y0304202D02*
X0174163Y0304202D01*
X0174273Y0303904D02*
X0176843Y0303904D01*
X0177056Y0303607D02*
X0174383Y0303607D01*
X0174494Y0303309D02*
X0177120Y0303309D01*
X0176836Y0303011D02*
X0175586Y0303011D01*
X0176018Y0302714D02*
X0176551Y0302714D01*
X0174614Y0303011D02*
X0174604Y0303011D01*
X0172050Y0303011D02*
X0172048Y0303011D01*
D14*
X0227042Y0363369D02*
X0227239Y0363526D01*
X0227436Y0363723D01*
X0227633Y0363880D01*
X0227829Y0364038D01*
X0228026Y0364235D01*
X0228184Y0364392D01*
X0228381Y0364550D01*
X0228577Y0364746D01*
X0228577Y0371991D01*
X0228381Y0372030D01*
X0228223Y0372069D01*
X0228026Y0372109D01*
X0227869Y0372109D01*
X0227672Y0372148D01*
X0227475Y0372187D01*
X0227318Y0372227D01*
X0227121Y0372266D01*
X0227121Y0371557D01*
X0226963Y0371754D01*
X0226806Y0371951D01*
X0226609Y0372069D01*
X0226412Y0372187D01*
X0226176Y0372306D01*
X0225940Y0372345D01*
X0225703Y0372384D01*
X0225467Y0372424D01*
X0224837Y0372345D01*
X0224325Y0372148D01*
X0223892Y0371872D01*
X0223538Y0371518D01*
X0223262Y0371046D01*
X0223066Y0370534D01*
X0222948Y0369983D01*
X0222948Y0369431D01*
X0224444Y0369471D01*
X0224483Y0369786D01*
X0224522Y0370101D01*
X0224640Y0370416D01*
X0224759Y0370691D01*
X0224955Y0370928D01*
X0225192Y0371085D01*
X0225467Y0371203D01*
X0225782Y0371243D01*
X0226136Y0371203D01*
X0226412Y0371085D01*
X0226648Y0370928D01*
X0226845Y0370691D01*
X0226963Y0370416D01*
X0227042Y0370101D01*
X0227121Y0369786D01*
X0227121Y0369117D01*
X0227042Y0368802D01*
X0226963Y0368487D01*
X0226806Y0368250D01*
X0226648Y0368014D01*
X0226412Y0367857D01*
X0226136Y0367739D01*
X0225782Y0367699D01*
X0225428Y0367739D01*
X0225152Y0367857D01*
X0224916Y0368014D01*
X0224759Y0368250D01*
X0224601Y0368487D01*
X0223262Y0367857D01*
X0223538Y0367424D01*
X0223892Y0367069D01*
X0224286Y0366794D01*
X0224798Y0366597D01*
X0225388Y0366557D01*
X0225625Y0366557D01*
X0225861Y0366597D01*
X0226097Y0366676D01*
X0226333Y0366754D01*
X0226530Y0366872D01*
X0226727Y0367030D01*
X0226885Y0367187D01*
X0227042Y0367384D01*
X0227042Y0363369D01*
X0227042Y0363640D02*
X0227353Y0363640D01*
X0227042Y0363938D02*
X0227705Y0363938D01*
X0228028Y0364237D02*
X0227042Y0364237D01*
X0227042Y0364535D02*
X0228363Y0364535D01*
X0228577Y0364834D02*
X0227042Y0364834D01*
X0227042Y0365132D02*
X0228577Y0365132D01*
X0228577Y0365431D02*
X0227042Y0365431D01*
X0227042Y0365729D02*
X0228577Y0365729D01*
X0228577Y0366028D02*
X0227042Y0366028D01*
X0227042Y0366326D02*
X0228577Y0366326D01*
X0228577Y0366625D02*
X0227042Y0366625D01*
X0227042Y0366923D02*
X0228577Y0366923D01*
X0228577Y0367222D02*
X0227042Y0367222D01*
X0226912Y0367222D02*
X0223740Y0367222D01*
X0223476Y0367520D02*
X0228577Y0367520D01*
X0228577Y0367819D02*
X0226324Y0367819D01*
X0226717Y0368117D02*
X0228577Y0368117D01*
X0228577Y0368416D02*
X0226916Y0368416D01*
X0227020Y0368714D02*
X0228577Y0368714D01*
X0228577Y0369013D02*
X0227095Y0369013D01*
X0227121Y0369311D02*
X0228577Y0369311D01*
X0228577Y0369610D02*
X0227121Y0369610D01*
X0227090Y0369908D02*
X0228577Y0369908D01*
X0228577Y0370207D02*
X0227015Y0370207D01*
X0226925Y0370505D02*
X0228577Y0370505D01*
X0228577Y0370804D02*
X0226751Y0370804D01*
X0226371Y0371103D02*
X0228577Y0371103D01*
X0228577Y0371401D02*
X0223470Y0371401D01*
X0223296Y0371103D02*
X0225232Y0371103D01*
X0224852Y0370804D02*
X0223170Y0370804D01*
X0223060Y0370505D02*
X0224679Y0370505D01*
X0224562Y0370207D02*
X0222996Y0370207D01*
X0222948Y0369908D02*
X0224498Y0369908D01*
X0224461Y0369610D02*
X0222948Y0369610D01*
X0222948Y0369431D02*
X0222987Y0368880D01*
X0223066Y0368329D01*
X0223262Y0367857D01*
X0224601Y0368487D01*
X0224522Y0368802D01*
X0224483Y0369117D01*
X0224444Y0369471D01*
X0222948Y0369431D01*
X0222956Y0369311D02*
X0224461Y0369311D01*
X0224496Y0369013D02*
X0222977Y0369013D01*
X0223011Y0368714D02*
X0224544Y0368714D01*
X0224451Y0368416D02*
X0224648Y0368416D01*
X0224451Y0368416D02*
X0223053Y0368416D01*
X0223154Y0368117D02*
X0223816Y0368117D01*
X0224847Y0368117D01*
X0225240Y0367819D02*
X0223287Y0367819D01*
X0222475Y0367975D02*
X0222475Y0368172D01*
X0222436Y0368605D01*
X0222318Y0368959D01*
X0222121Y0369235D01*
X0221885Y0369471D01*
X0221609Y0369628D01*
X0221294Y0369746D01*
X0220940Y0369825D01*
X0220625Y0369865D01*
X0220310Y0369038D01*
X0220388Y0368998D01*
X0220467Y0368959D01*
X0220546Y0368920D01*
X0220625Y0368880D01*
X0220703Y0368841D01*
X0220743Y0368802D01*
X0220782Y0368762D01*
X0220861Y0368683D01*
X0220900Y0368605D01*
X0220940Y0368526D01*
X0220940Y0368369D01*
X0220979Y0368250D01*
X0220940Y0368172D01*
X0220940Y0368093D01*
X0220900Y0367975D01*
X0220900Y0367935D01*
X0220861Y0367857D01*
X0220782Y0367778D01*
X0220743Y0367739D01*
X0220664Y0367699D01*
X0220625Y0367660D01*
X0220546Y0367620D01*
X0220467Y0367620D01*
X0220388Y0367581D01*
X0219798Y0367581D01*
X0219640Y0367620D01*
X0219483Y0367660D01*
X0219325Y0367699D01*
X0219207Y0367778D01*
X0219089Y0367896D01*
X0219010Y0367975D01*
X0218971Y0368093D01*
X0218892Y0368172D01*
X0218853Y0368290D01*
X0218853Y0368408D01*
X0218814Y0368487D01*
X0218814Y0368605D01*
X0218774Y0368683D01*
X0218774Y0369431D01*
X0218853Y0369392D01*
X0218892Y0369353D01*
X0218971Y0369313D01*
X0219010Y0369274D01*
X0219089Y0369274D01*
X0219168Y0369235D01*
X0219247Y0369195D01*
X0219444Y0369195D01*
X0219601Y0370022D01*
X0219325Y0370061D01*
X0219089Y0370140D01*
X0218932Y0370258D01*
X0218814Y0370416D01*
X0218774Y0370613D01*
X0218774Y0370731D01*
X0218814Y0370849D01*
X0218814Y0370928D01*
X0218853Y0371006D01*
X0218892Y0371085D01*
X0218971Y0371164D01*
X0219010Y0371203D01*
X0219089Y0371243D01*
X0219168Y0371282D01*
X0219247Y0371321D01*
X0219325Y0371321D01*
X0219404Y0371361D01*
X0219680Y0371361D01*
X0219759Y0371400D01*
X0219877Y0371361D01*
X0220073Y0371361D01*
X0220192Y0371321D01*
X0220270Y0371321D01*
X0220349Y0371282D01*
X0220428Y0371243D01*
X0220467Y0371203D01*
X0220546Y0371124D01*
X0220585Y0371085D01*
X0220664Y0371006D01*
X0220703Y0370928D01*
X0220743Y0370849D01*
X0220743Y0370731D01*
X0220782Y0370652D01*
X0220782Y0370534D01*
X0222318Y0370534D01*
X0222278Y0370809D01*
X0222239Y0371006D01*
X0222160Y0371243D01*
X0222042Y0371439D01*
X0221924Y0371597D01*
X0221766Y0371754D01*
X0221609Y0371872D01*
X0221451Y0371991D01*
X0221255Y0372109D01*
X0221058Y0372187D01*
X0220861Y0372266D01*
X0220625Y0372306D01*
X0220388Y0372345D01*
X0220152Y0372384D01*
X0219286Y0372384D01*
X0219050Y0372345D01*
X0218853Y0372345D01*
X0218656Y0372306D01*
X0218420Y0372227D01*
X0218262Y0372187D01*
X0218066Y0372109D01*
X0217908Y0372030D01*
X0217751Y0371912D01*
X0217593Y0371754D01*
X0217475Y0371636D01*
X0217396Y0371439D01*
X0217318Y0371282D01*
X0217278Y0371046D01*
X0217239Y0370809D01*
X0217239Y0367266D01*
X0217199Y0367187D01*
X0217199Y0367030D01*
X0217160Y0366951D01*
X0217160Y0366912D01*
X0217121Y0366833D01*
X0217121Y0366794D01*
X0217081Y0366715D01*
X0217081Y0366676D01*
X0218617Y0366676D01*
X0218617Y0366754D01*
X0218656Y0366794D01*
X0218656Y0366833D01*
X0218696Y0366872D01*
X0218696Y0367109D01*
X0218735Y0367148D01*
X0218735Y0367227D01*
X0218814Y0367148D01*
X0218892Y0367030D01*
X0219010Y0366951D01*
X0219129Y0366912D01*
X0219247Y0366833D01*
X0219325Y0366794D01*
X0219444Y0366715D01*
X0219562Y0366676D01*
X0219719Y0366636D01*
X0219837Y0366597D01*
X0219955Y0366597D01*
X0220073Y0366557D01*
X0220349Y0366557D01*
X0220467Y0366518D01*
X0220782Y0366518D01*
X0220979Y0366557D01*
X0221176Y0366557D01*
X0221333Y0366636D01*
X0221491Y0366676D01*
X0221648Y0366754D01*
X0221806Y0366833D01*
X0221924Y0366912D01*
X0222042Y0367030D01*
X0222160Y0367148D01*
X0222278Y0367306D01*
X0222357Y0367463D01*
X0222396Y0367620D01*
X0222436Y0367778D01*
X0222475Y0367975D01*
X0222475Y0368117D02*
X0220940Y0368117D01*
X0220940Y0368416D02*
X0222453Y0368416D01*
X0222399Y0368714D02*
X0220830Y0368714D01*
X0220359Y0369013D02*
X0222279Y0369013D01*
X0222044Y0369311D02*
X0220414Y0369311D01*
X0219466Y0369311D01*
X0218973Y0369311D01*
X0218774Y0369311D02*
X0217239Y0369311D01*
X0217239Y0369013D02*
X0218774Y0369013D01*
X0218774Y0368714D02*
X0217239Y0368714D01*
X0217239Y0368416D02*
X0218849Y0368416D01*
X0218947Y0368117D02*
X0217239Y0368117D01*
X0217239Y0367819D02*
X0219166Y0367819D01*
X0218740Y0367222D02*
X0222215Y0367222D01*
X0222371Y0367520D02*
X0217239Y0367520D01*
X0217217Y0367222D02*
X0218735Y0367222D01*
X0218696Y0366923D02*
X0217160Y0366923D01*
X0216412Y0366923D02*
X0214877Y0366923D01*
X0214877Y0366676D02*
X0216412Y0366676D01*
X0216412Y0371321D01*
X0216412Y0371991D01*
X0216215Y0372030D01*
X0216018Y0372069D01*
X0215861Y0372109D01*
X0215664Y0372109D01*
X0215467Y0372148D01*
X0215310Y0372187D01*
X0215113Y0372227D01*
X0214955Y0372266D01*
X0214955Y0371203D01*
X0214916Y0371203D01*
X0214798Y0371479D01*
X0214640Y0371715D01*
X0214444Y0371912D01*
X0214207Y0372069D01*
X0213971Y0372227D01*
X0213696Y0372306D01*
X0213420Y0372384D01*
X0212869Y0372384D01*
X0212829Y0372345D01*
X0212829Y0370928D01*
X0212869Y0370928D01*
X0212948Y0370967D01*
X0213381Y0370967D01*
X0213774Y0370928D01*
X0214089Y0370849D01*
X0214325Y0370691D01*
X0214562Y0370455D01*
X0214680Y0370180D01*
X0214798Y0369904D01*
X0214877Y0369550D01*
X0214877Y0366676D01*
X0214877Y0367222D02*
X0216412Y0367222D01*
X0216412Y0367520D02*
X0214877Y0367520D01*
X0214877Y0367819D02*
X0216412Y0367819D01*
X0216412Y0368117D02*
X0214877Y0368117D01*
X0214877Y0368416D02*
X0216412Y0368416D01*
X0216412Y0368714D02*
X0214877Y0368714D01*
X0214877Y0369013D02*
X0216412Y0369013D01*
X0216412Y0369311D02*
X0214877Y0369311D01*
X0214863Y0369610D02*
X0216412Y0369610D01*
X0216412Y0369908D02*
X0214796Y0369908D01*
X0214668Y0370207D02*
X0216412Y0370207D01*
X0216412Y0370505D02*
X0214511Y0370505D01*
X0214156Y0370804D02*
X0216412Y0370804D01*
X0216412Y0371103D02*
X0212829Y0371103D01*
X0212829Y0371401D02*
X0214831Y0371401D01*
X0214955Y0371401D02*
X0216412Y0371401D01*
X0216412Y0371700D02*
X0214955Y0371700D01*
X0214955Y0371998D02*
X0216375Y0371998D01*
X0217377Y0371401D02*
X0222065Y0371401D01*
X0222207Y0371103D02*
X0220568Y0371103D01*
X0220743Y0370804D02*
X0222279Y0370804D01*
X0221821Y0371700D02*
X0217538Y0371700D01*
X0217866Y0371998D02*
X0221439Y0371998D01*
X0220678Y0372297D02*
X0218629Y0372297D01*
X0218910Y0371103D02*
X0217288Y0371103D01*
X0217239Y0370804D02*
X0218799Y0370804D01*
X0218796Y0370505D02*
X0217239Y0370505D01*
X0217239Y0370207D02*
X0219000Y0370207D01*
X0219601Y0370022D02*
X0219444Y0369195D01*
X0219522Y0369156D01*
X0219680Y0369156D01*
X0219798Y0369117D01*
X0219955Y0369117D01*
X0220073Y0369077D01*
X0220152Y0369077D01*
X0220231Y0369038D01*
X0220310Y0369038D01*
X0220625Y0369865D01*
X0220270Y0369943D01*
X0219916Y0369983D01*
X0219601Y0370022D01*
X0219579Y0369908D02*
X0217239Y0369908D01*
X0217239Y0369610D02*
X0219523Y0369610D01*
X0220528Y0369610D01*
X0221641Y0369610D01*
X0220427Y0369908D02*
X0219579Y0369908D01*
X0220823Y0367819D02*
X0222444Y0367819D01*
X0221935Y0366923D02*
X0219094Y0366923D01*
X0219753Y0366625D02*
X0221311Y0366625D01*
X0224101Y0366923D02*
X0226594Y0366923D01*
X0225945Y0366625D02*
X0224725Y0366625D01*
X0229247Y0367975D02*
X0229444Y0367581D01*
X0229680Y0367227D01*
X0229995Y0366991D01*
X0230388Y0366794D01*
X0230822Y0366636D01*
X0231294Y0366557D01*
X0232239Y0366557D01*
X0232711Y0366636D01*
X0233144Y0366794D01*
X0233538Y0366991D01*
X0233853Y0367227D01*
X0234129Y0367581D01*
X0234286Y0368014D01*
X0234365Y0368487D01*
X0233105Y0368487D01*
X0232908Y0368487D01*
X0232869Y0368250D01*
X0232790Y0368093D01*
X0232711Y0367896D01*
X0232554Y0367778D01*
X0232357Y0367699D01*
X0232160Y0367620D01*
X0231963Y0367581D01*
X0231727Y0367542D01*
X0231570Y0367581D01*
X0231412Y0367581D01*
X0231215Y0367660D01*
X0231058Y0367699D01*
X0230940Y0367817D01*
X0230822Y0367935D01*
X0230743Y0368093D01*
X0230743Y0368290D01*
X0230782Y0368447D01*
X0230861Y0368565D01*
X0230979Y0368683D01*
X0231176Y0368802D01*
X0231451Y0368880D01*
X0231727Y0368959D01*
X0232081Y0369038D01*
X0232475Y0369117D01*
X0232790Y0369235D01*
X0233105Y0369313D01*
X0233420Y0369431D01*
X0233696Y0369589D01*
X0233892Y0369786D01*
X0234089Y0369983D01*
X0234207Y0370298D01*
X0234247Y0370613D01*
X0234168Y0371124D01*
X0234010Y0371518D01*
X0233774Y0371794D01*
X0233459Y0372030D01*
X0233105Y0372227D01*
X0232711Y0372345D01*
X0232278Y0372384D01*
X0231806Y0372424D01*
X0231373Y0372384D01*
X0230940Y0372345D01*
X0230546Y0372227D01*
X0230192Y0372030D01*
X0229877Y0371794D01*
X0229601Y0371479D01*
X0229444Y0371085D01*
X0229365Y0370652D01*
X0230822Y0370652D01*
X0230861Y0370849D01*
X0230900Y0371006D01*
X0231018Y0371124D01*
X0231136Y0371243D01*
X0231294Y0371321D01*
X0231451Y0371361D01*
X0231648Y0371400D01*
X0232003Y0371400D01*
X0232121Y0371361D01*
X0232278Y0371361D01*
X0232396Y0371321D01*
X0232514Y0371243D01*
X0232633Y0371164D01*
X0232672Y0371046D01*
X0232711Y0370888D01*
X0232672Y0370691D01*
X0232554Y0370534D01*
X0232396Y0370416D01*
X0232160Y0370337D01*
X0231885Y0370258D01*
X0231609Y0370180D01*
X0231294Y0370140D01*
X0230979Y0370061D01*
X0230625Y0369983D01*
X0230310Y0369865D01*
X0230034Y0369746D01*
X0229759Y0369589D01*
X0229522Y0369392D01*
X0229365Y0369156D01*
X0229247Y0368841D01*
X0229207Y0368487D01*
X0229247Y0367975D01*
X0229236Y0368117D02*
X0230743Y0368117D01*
X0230774Y0368416D02*
X0229213Y0368416D01*
X0229233Y0368714D02*
X0231031Y0368714D01*
X0230938Y0367819D02*
X0229325Y0367819D01*
X0229484Y0367520D02*
X0234081Y0367520D01*
X0234215Y0367819D02*
X0232608Y0367819D01*
X0232802Y0368117D02*
X0234303Y0368117D01*
X0234353Y0368416D02*
X0232896Y0368416D01*
X0233097Y0369311D02*
X0229469Y0369311D01*
X0229311Y0369013D02*
X0231970Y0369013D01*
X0231705Y0370207D02*
X0234173Y0370207D01*
X0234233Y0370505D02*
X0232516Y0370505D01*
X0232694Y0370804D02*
X0234217Y0370804D01*
X0234171Y0371103D02*
X0232653Y0371103D01*
X0232872Y0372297D02*
X0230779Y0372297D01*
X0230149Y0371998D02*
X0233502Y0371998D01*
X0233855Y0371700D02*
X0229794Y0371700D01*
X0229570Y0371401D02*
X0234057Y0371401D01*
X0234015Y0369908D02*
X0230427Y0369908D01*
X0229795Y0369610D02*
X0233717Y0369610D01*
X0233846Y0367222D02*
X0229686Y0367222D01*
X0230129Y0366923D02*
X0233404Y0366923D01*
X0232643Y0366625D02*
X0230890Y0366625D01*
X0230852Y0370804D02*
X0229392Y0370804D01*
X0229451Y0371103D02*
X0230996Y0371103D01*
X0228577Y0371700D02*
X0227121Y0371700D01*
X0227007Y0371700D02*
X0223719Y0371700D01*
X0224090Y0371998D02*
X0226728Y0371998D01*
X0227121Y0371998D02*
X0228540Y0371998D01*
X0226194Y0372297D02*
X0224712Y0372297D01*
X0214651Y0371700D02*
X0212829Y0371700D01*
X0212829Y0371998D02*
X0214314Y0371998D01*
X0213727Y0372297D02*
X0212829Y0372297D01*
X0212199Y0372297D02*
X0210703Y0372297D01*
X0210703Y0372595D02*
X0212199Y0372595D01*
X0212199Y0372894D02*
X0210703Y0372894D01*
X0210703Y0373192D02*
X0212199Y0373192D01*
X0212199Y0373491D02*
X0210703Y0373491D01*
X0210703Y0373789D02*
X0211745Y0373789D01*
X0212199Y0373526D02*
X0212199Y0366676D01*
X0210703Y0366676D01*
X0210703Y0368605D01*
X0210113Y0369195D01*
X0208577Y0366676D01*
X0206727Y0366676D01*
X0209050Y0370219D01*
X0206963Y0372266D01*
X0208774Y0372266D01*
X0210703Y0370258D01*
X0210703Y0374392D01*
X0212199Y0373526D01*
X0211229Y0374088D02*
X0210703Y0374088D01*
X0210703Y0374386D02*
X0210714Y0374386D01*
X0210703Y0371998D02*
X0212199Y0371998D01*
X0212199Y0371700D02*
X0210703Y0371700D01*
X0210703Y0371401D02*
X0212199Y0371401D01*
X0212199Y0371103D02*
X0210703Y0371103D01*
X0210703Y0370804D02*
X0212199Y0370804D01*
X0212199Y0370505D02*
X0210703Y0370505D01*
X0210466Y0370505D02*
X0208758Y0370505D01*
X0209042Y0370207D02*
X0212199Y0370207D01*
X0212199Y0369908D02*
X0208846Y0369908D01*
X0208651Y0369610D02*
X0212199Y0369610D01*
X0212199Y0369311D02*
X0208455Y0369311D01*
X0208259Y0369013D02*
X0210002Y0369013D01*
X0210295Y0369013D02*
X0212199Y0369013D01*
X0212199Y0368714D02*
X0210594Y0368714D01*
X0210703Y0368416D02*
X0212199Y0368416D01*
X0212199Y0368117D02*
X0210703Y0368117D01*
X0210703Y0367819D02*
X0212199Y0367819D01*
X0212199Y0367520D02*
X0210703Y0367520D01*
X0210703Y0367222D02*
X0212199Y0367222D01*
X0212199Y0366923D02*
X0210703Y0366923D01*
X0209274Y0367819D02*
X0207477Y0367819D01*
X0207672Y0368117D02*
X0209456Y0368117D01*
X0209638Y0368416D02*
X0207868Y0368416D01*
X0208064Y0368714D02*
X0209820Y0368714D01*
X0209092Y0367520D02*
X0207281Y0367520D01*
X0207085Y0367222D02*
X0208910Y0367222D01*
X0208728Y0366923D02*
X0206889Y0366923D01*
X0205782Y0366923D02*
X0204247Y0366923D01*
X0204247Y0366676D02*
X0205782Y0366676D01*
X0205782Y0370652D01*
X0205782Y0371243D01*
X0207278Y0371243D01*
X0207160Y0371361D01*
X0207042Y0371479D01*
X0206885Y0371597D01*
X0206766Y0371754D01*
X0206648Y0371872D01*
X0206530Y0371991D01*
X0206373Y0372109D01*
X0206255Y0372266D01*
X0205782Y0372266D01*
X0205782Y0372699D01*
X0205743Y0373054D01*
X0205664Y0373369D01*
X0205507Y0373644D01*
X0205310Y0373880D01*
X0205073Y0374117D01*
X0204759Y0374235D01*
X0204365Y0374353D01*
X0203932Y0374392D01*
X0203617Y0374392D01*
X0203499Y0374353D01*
X0203105Y0374353D01*
X0203105Y0373211D01*
X0203814Y0373211D01*
X0203932Y0373172D01*
X0204050Y0373132D01*
X0204129Y0373093D01*
X0204168Y0372975D01*
X0204207Y0372896D01*
X0204247Y0372739D01*
X0204247Y0372266D01*
X0203184Y0372266D01*
X0203184Y0371243D01*
X0204247Y0371243D01*
X0204247Y0366676D01*
X0204247Y0367222D02*
X0205782Y0367222D01*
X0205782Y0367520D02*
X0204247Y0367520D01*
X0204247Y0367819D02*
X0205782Y0367819D01*
X0205782Y0368117D02*
X0204247Y0368117D01*
X0204247Y0368416D02*
X0205782Y0368416D01*
X0205782Y0368714D02*
X0204247Y0368714D01*
X0204247Y0369013D02*
X0205782Y0369013D01*
X0205782Y0369311D02*
X0204247Y0369311D01*
X0204247Y0369610D02*
X0205782Y0369610D01*
X0205782Y0369908D02*
X0204247Y0369908D01*
X0204247Y0370207D02*
X0205782Y0370207D01*
X0205782Y0370505D02*
X0204247Y0370505D01*
X0204247Y0370804D02*
X0205782Y0370804D01*
X0205782Y0371103D02*
X0204247Y0371103D01*
X0203184Y0371401D02*
X0207120Y0371401D01*
X0206807Y0371700D02*
X0203184Y0371700D01*
X0203184Y0371998D02*
X0206520Y0371998D01*
X0207236Y0371998D02*
X0209032Y0371998D01*
X0209319Y0371700D02*
X0207541Y0371700D01*
X0207845Y0371401D02*
X0209605Y0371401D01*
X0209892Y0371103D02*
X0208149Y0371103D01*
X0208453Y0370804D02*
X0210179Y0370804D01*
X0205782Y0372297D02*
X0204247Y0372297D01*
X0204247Y0372595D02*
X0205782Y0372595D01*
X0205761Y0372894D02*
X0204208Y0372894D01*
X0203870Y0373192D02*
X0205708Y0373192D01*
X0205594Y0373491D02*
X0203105Y0373491D01*
X0203105Y0373789D02*
X0205386Y0373789D01*
X0205102Y0374088D02*
X0203105Y0374088D01*
X0203599Y0374386D02*
X0203998Y0374386D01*
X0202751Y0372266D02*
X0201215Y0372266D01*
X0201215Y0368802D01*
X0201176Y0368526D01*
X0201097Y0368290D01*
X0201018Y0368093D01*
X0200861Y0367935D01*
X0200703Y0367817D01*
X0200507Y0367778D01*
X0200231Y0367739D01*
X0199955Y0367778D01*
X0199719Y0367817D01*
X0199522Y0367935D01*
X0199325Y0368132D01*
X0199207Y0368329D01*
X0199129Y0368605D01*
X0199089Y0368959D01*
X0199050Y0369353D01*
X0199050Y0372266D01*
X0197554Y0372266D01*
X0197554Y0367384D01*
X0197554Y0366676D01*
X0199010Y0366676D01*
X0199010Y0367463D01*
X0199168Y0367227D01*
X0199365Y0367069D01*
X0199562Y0366872D01*
X0199759Y0366754D01*
X0199995Y0366676D01*
X0200231Y0366597D01*
X0200467Y0366557D01*
X0200743Y0366518D01*
X0201294Y0366597D01*
X0201727Y0366715D01*
X0202081Y0366912D01*
X0202357Y0367148D01*
X0202554Y0367502D01*
X0202672Y0367896D01*
X0202751Y0368329D01*
X0202751Y0372266D01*
X0202751Y0371998D02*
X0201215Y0371998D01*
X0201215Y0371700D02*
X0202751Y0371700D01*
X0202751Y0371401D02*
X0201215Y0371401D01*
X0201215Y0371103D02*
X0202751Y0371103D01*
X0202751Y0370804D02*
X0201215Y0370804D01*
X0201215Y0370505D02*
X0202751Y0370505D01*
X0202751Y0370207D02*
X0201215Y0370207D01*
X0201215Y0369908D02*
X0202751Y0369908D01*
X0202751Y0369610D02*
X0201215Y0369610D01*
X0201215Y0369311D02*
X0202751Y0369311D01*
X0202751Y0369013D02*
X0201215Y0369013D01*
X0201203Y0368714D02*
X0202751Y0368714D01*
X0202751Y0368416D02*
X0201139Y0368416D01*
X0201028Y0368117D02*
X0202712Y0368117D01*
X0202649Y0367819D02*
X0200706Y0367819D01*
X0199717Y0367819D02*
X0197554Y0367819D01*
X0197554Y0368117D02*
X0199340Y0368117D01*
X0199183Y0368416D02*
X0197554Y0368416D01*
X0197554Y0368714D02*
X0199116Y0368714D01*
X0199084Y0369013D02*
X0197554Y0369013D01*
X0197554Y0369311D02*
X0199054Y0369311D01*
X0199050Y0369610D02*
X0197554Y0369610D01*
X0197554Y0369908D02*
X0199050Y0369908D01*
X0199050Y0370207D02*
X0197554Y0370207D01*
X0197554Y0370505D02*
X0199050Y0370505D01*
X0199050Y0370804D02*
X0197554Y0370804D01*
X0197554Y0371103D02*
X0199050Y0371103D01*
X0199050Y0371401D02*
X0197554Y0371401D01*
X0197554Y0371700D02*
X0199050Y0371700D01*
X0199050Y0371998D02*
X0197554Y0371998D01*
X0196703Y0371998D02*
X0195270Y0371998D01*
X0195270Y0372266D02*
X0195270Y0371479D01*
X0195231Y0371479D01*
X0195073Y0371715D01*
X0194916Y0371912D01*
X0194680Y0372069D01*
X0194483Y0372187D01*
X0194247Y0372266D01*
X0194010Y0372345D01*
X0193774Y0372384D01*
X0193538Y0372424D01*
X0192987Y0372345D01*
X0192514Y0372227D01*
X0192160Y0372030D01*
X0191924Y0371794D01*
X0191727Y0371439D01*
X0191570Y0371046D01*
X0191530Y0370613D01*
X0191491Y0370101D01*
X0191491Y0366676D01*
X0193026Y0366676D01*
X0193026Y0370140D01*
X0193066Y0370416D01*
X0193144Y0370652D01*
X0193262Y0370849D01*
X0193381Y0371006D01*
X0193538Y0371124D01*
X0193774Y0371164D01*
X0194010Y0371203D01*
X0194286Y0371164D01*
X0194562Y0371124D01*
X0194759Y0371006D01*
X0194916Y0370809D01*
X0195034Y0370613D01*
X0195113Y0370337D01*
X0195192Y0369983D01*
X0195192Y0366676D01*
X0196727Y0366676D01*
X0196727Y0371557D01*
X0196688Y0372266D01*
X0195270Y0372266D01*
X0194787Y0371998D02*
X0192128Y0371998D01*
X0191872Y0371700D02*
X0195084Y0371700D01*
X0195270Y0371700D02*
X0196719Y0371700D01*
X0196727Y0371401D02*
X0191712Y0371401D01*
X0191592Y0371103D02*
X0193509Y0371103D01*
X0193236Y0370804D02*
X0191548Y0370804D01*
X0191522Y0370505D02*
X0193096Y0370505D01*
X0193036Y0370207D02*
X0191499Y0370207D01*
X0191491Y0369908D02*
X0193026Y0369908D01*
X0193026Y0369610D02*
X0191491Y0369610D01*
X0191491Y0369311D02*
X0193026Y0369311D01*
X0193026Y0369013D02*
X0191491Y0369013D01*
X0191491Y0368714D02*
X0193026Y0368714D01*
X0193026Y0368416D02*
X0191491Y0368416D01*
X0191491Y0368117D02*
X0193026Y0368117D01*
X0193026Y0367819D02*
X0191491Y0367819D01*
X0191491Y0367520D02*
X0193026Y0367520D01*
X0193026Y0367222D02*
X0191491Y0367222D01*
X0191491Y0366923D02*
X0193026Y0366923D01*
X0195192Y0366923D02*
X0196727Y0366923D01*
X0196727Y0367222D02*
X0195192Y0367222D01*
X0195192Y0367520D02*
X0196727Y0367520D01*
X0196727Y0367819D02*
X0195192Y0367819D01*
X0195192Y0368117D02*
X0196727Y0368117D01*
X0196727Y0368416D02*
X0195192Y0368416D01*
X0195192Y0368714D02*
X0196727Y0368714D01*
X0196727Y0369013D02*
X0195192Y0369013D01*
X0195192Y0369311D02*
X0196727Y0369311D01*
X0196727Y0369610D02*
X0195192Y0369610D01*
X0195192Y0369908D02*
X0196727Y0369908D01*
X0196727Y0370207D02*
X0195142Y0370207D01*
X0195065Y0370505D02*
X0196727Y0370505D01*
X0196727Y0370804D02*
X0194919Y0370804D01*
X0194598Y0371103D02*
X0196727Y0371103D01*
X0194155Y0372297D02*
X0192794Y0372297D01*
X0197554Y0367520D02*
X0202559Y0367520D01*
X0202398Y0367222D02*
X0199174Y0367222D01*
X0199010Y0367222D02*
X0197554Y0367222D01*
X0197554Y0366923D02*
X0199010Y0366923D01*
X0199511Y0366923D02*
X0202095Y0366923D01*
X0201397Y0366625D02*
X0200147Y0366625D01*
M02*
